<?xml version="1.0" encoding="utf-8"?>
<!-- Generator: Adobe Illustrator 20.1.0, SVG Export Plug-In . SVG Version: 6.00 Build 0)  -->
<svg version="1.1" id="Layer_1" xmlns="http://www.w3.org/2000/svg" xmlns:xlink="http://www.w3.org/1999/xlink" x="0px" y="0px"
	 viewBox="0 0 549.4 95.1" style="enable-background:new 0 0 549.4 95.1;" xml:space="preserve">
<g>
	<path d="M390.1,36.6c-0.4,3.8-0.9,6-0.9,8.1c0.1,10.3,0.5,20.6,0.6,31c0.1,5.5,0,5.5-7.8,9.1c-0.6-2.2-1.6-4.3-1.7-6.4
		c-0.9-13.9-1.7-27.8-2.3-41.8c-0.1-2.1,0.7-4.5,1.7-6.5c1.5-2.9,3.2-5.7,5.4-8.1c1.4-1.6,3.8-3.3,5.6-3.2c1.7,0.1,3.9,2.2,4.8,4
		c1.9,3.8,3,8.1,4.6,12.1c3.4,8.7,3.5,8.6,12.3,17.1c10.8-8.9,20.7-18.4,25.5-32.2c0.5-1.5,1.2-3.4,2.4-4.1c1.8-1,4.3-1.8,6.3-1.3
		c1.3,0.3,2.8,2.7,3.1,4.4c1,6.6,1.3,13.2,2.2,19.8c1.1,8.9,2.9,17.7,3.7,26.6c0.5,5.3,2.5,8.7,8,10c-1.4,4.5-3.7,6.8-8,6.4
		c-4.4-0.4-6.5-3.7-7.2-7.3c-1.7-7.8-2.9-15.7-4-23.6c-0.9-6.2-1.5-12.5-2.5-20.8c-4.2,4.7-7.3,8.3-10.6,11.9
		c-4.7,5.1-9.1,10.6-14.3,15.2c-6,5.2-9.5,5-14.4-1.1C398.1,50.7,394.9,44.4,390.1,36.6z"/>
	<path d="M287.4,52.8c-6.5,0-12.1,0-18.4,0c-3.2,9.6-7.8,18.3-15.8,24.6c-9.8,7.8-21.8,7.6-30.9-0.6c-7.6-6.8-10.2-20.5-5.8-29.4
		c1.9-3.7,4.5-5.6,10.1-3.6c-0.8,2.9-1.4,5.9-2.5,8.7c-2.6,6.4-1.5,12.8,3.1,17.4c5.7,5.7,12.6,7.3,19,3.8
		c8.8-4.7,13.9-12.3,14.8-22.2c0.2-2.2-1.6-4.8-3.2-6.7c-2-2.6-5.2-4.4-2.2-9.1c4.3,2.7,8.3,6.3,13,7.6c4.6,1.3,9.8,0.3,15.3,0.3
		c-0.1-7-1.7-12.9-4.7-18.5c-3.1-5.8-2.9-8.7,0.6-10c4-1.5,6.7,0.5,8.5,6.8c1.5,5.1,2.9,10.2,3.8,15.4c0.8,4.7,2.7,7,7.8,6.9
		c7.8-0.3,15.6-0.1,23.1-0.1c-1.8,4.3-1.8,4.3-25.6,7.9c1.2,3.5,2.3,6.8,3.5,10.1c1,2.8,2.8,5.5,3.1,8.3c0.2,1.8-1.5,3.8-2.3,5.7
		c-1.8-1-4.5-1.6-5.3-3.1C293.2,66.7,290.5,59.9,287.4,52.8z"/>
	<path d="M30,79.2c-5.2-0.9-6.9-3-4.3-7.5c4-6.9,7.9-13.8,11.9-20.7c0.5-0.9,0.9-1.9,1.7-2.5c10.5-8,14.7-20.2,20.9-31
		c0.5-0.9,0.9-1.8,1.5-2.6c3.3-4.9,5.6-5,8.8-0.2c1.3,1.9,2.5,4,3.4,6.1c4.2,10,4.5,22.3,18.3,27.1c-3.4,2.6-5.3,4.1-8,6.1
		c1.8,5.3,3.7,10.9,5.7,16.4c2.2,6,2,6.7-5.1,10.7c-6.4-8-6-18.6-10.4-28.2c-9.2,2.1-18.5,3.9-27.7,6.4c-5,1.3-8.5,4.9-10.9,9.6
		C34.1,72.2,32.2,75.3,30,79.2z M72.1,44.5c-2.4-12.5-3.3-14.8-8.5-20.7c-5,8.2-11,15.4-14.9,24.9C57.6,50.1,64.6,47.6,72.1,44.5z"
		/>
	<path d="M478.1,65.3c1.4,11.6,10.1,19,21.5,17.1c10.6-1.8,21-5.2,31.9-7.9c-0.3,1-0.3,2.9-1.2,4.1c-1.2,1.5-3,2.9-4.8,3.3
		c-10.9,2.7-21.8,6.6-32.8,7.2c-17,1.1-29-15.1-24.8-31.5c3.2-12.7,9.8-22.8,23.7-25.4c3.7-0.7,8.1-0.3,11.5,1.2
		c11.3,4.9,12.5,16.6,2.2,23.3c-4.9,3.2-10.9,4.7-16.6,6.6C485.3,64.3,481.6,64.6,478.1,65.3z M479.3,52.6
		c6.3,5.1,12.5,2.6,18.4-0.5c1.9-1,4.2-4.1,3.9-5.9c-0.3-1.9-3.1-4.1-5.3-4.9C489.6,38.8,483.5,43,479.3,52.6z"/>
	<path d="M96.6,74.3c9.1-18.2,7.4-37.3,2.6-56.9c5.6-4.7,8.1-4.4,9.3,2.4c1.1,6.5,1.3,13.2,1.6,19.8c0.2,4.9,0,9.8,0,16.4
		c3.6-2.9,6-5,8.5-6.8c14.2-10.8,30.9-3.5,35.8,8.7c4.5,11.2,1.2,21.1-10.2,24.9c-8.6,2.9-17.5,3.5-26.3-0.5
		C111.2,79.4,104.2,77.2,96.6,74.3z M109.4,69.9c9.4,6.9,17.6,9.6,26.9,8.4c6.1-0.8,11.3-5.1,12.1-10.1c0.8-4.6-2.2-10.8-6.5-13.5
		c-6.3-4.1-12.9-3.8-18.5,0.6C118.4,59.2,114.4,64.5,109.4,69.9z"/>
	<path d="M164.5,64.7c0.3-2.1,0.7-6.4,1.3-10.6c0.8-6.1,5.9-9.8,11.9-8.6c3.2,0.7,6.3,1.7,9.6,2c11.1,1,21,9.9,20.7,19
		c-0.4,12-10.6,23.7-21.1,24.2c-11.3,0.5-21-8.1-22.3-19.8C164.4,69.5,164.5,68.2,164.5,64.7z M184.4,54.1c-8,0.1-12.3,5-11.8,13.7
		c0.6,9.6,5.2,14.7,14.6,15.2c7,0.4,12.3-6,12.3-13.9C199.5,61,192.4,53.9,184.4,54.1z"/>
</g>
</svg>
