<?xml version="1.0" encoding="utf-8"?>
<!-- Generator: Adobe Illustrator 20.1.0, SVG Export Plug-In . SVG Version: 6.00 Build 0)  -->
<svg version="1.1" id="Layer_1" xmlns="http://www.w3.org/2000/svg" xmlns:xlink="http://www.w3.org/1999/xlink" x="0px" y="0px"
	 viewBox="0 0 244 102.2" style="enable-background:new 0 0 244 102.2;" xml:space="preserve">
<g>
	<path d="M212,27.8c8.7,5.3,11.8,12.6,12,21.4c0.1,4.7,0.5,9.3,0.4,14c-0.3,8.1,0.8,15.8,5.4,22.7c-7.3,2.9-9.1,2.7-11.5-2.5
		c-1.3-2.9-2-6.4-2.1-9.6c-0.3-7,0.4-14-0.1-21c-0.4-5.1-0.1-12.1-6.1-13.2c-2.7-0.5-7.7,4.6-9.8,8.3c-5,8.9-9,18.4-13.4,27.6
		c-1.1,2.4-1.8,5.2-3.5,7c-3.7,3.9-8.2,2.3-9.3-3.1c-1.7-8.5-3.1-17-4.9-25.4c-0.6-2.8-2.1-5.3-3.4-8.6c-9.7,4.5-11.5,12.4-12,20.9
		c-0.3,4.3,0.4,8.6,0.4,13c0,7.2-2.1,8.4-10.9,5.7c0.4-4.7,1.1-9.6,1.3-14.5c0.2-6.2,0.4-12.5,0.1-18.7c-0.2-5.7,0.4-7.6,6.2-7.4
		c4.8,0.1,6.2-3.4,8.9-5.4c7.3-5.3,10.1-5.1,13.6,3c2.3,5.4,3.5,11.4,5.1,17.1c0.6,2.1,1.2,4.3,2.4,8.9c3.1-5.1,4.8-8.4,6.9-11.5
		c5.4-7.9,10.7-15.9,16.6-23.4C206.1,30.6,209.5,29.4,212,27.8z"/>
	<path d="M21,65.2c-4.4-0.9-7-1.4-9-1.8c-3.2-3.6-1-7,6.7-11.2c-0.3-6-0.3-12.3-1-18.5c-0.3-2.1-2.6-3.9-4-5.8
		c-1.1-1.4-3.3-3.2-3-4.3c0.5-2,2.1-4.4,3.9-5.1c4.6-1.8,9.5-3,14.3-4.1c8.4-1.9,16.8-3.7,25.3-5.3c3.5-0.7,6.7,0.3,8.2,4
		c1.5,3.7,1.4,7.1-2.8,9.5c-2.7-1.6-5.1-3.9-7.9-4.5c-2.7-0.6-5.9,0.4-8.8,1c-5.5,1.1-11,2.5-16.5,3.8c-0.9,0.2-1.8,0.9-3,1.5
		c1.1,9.3,2.2,18.8,3.5,29.4c7.6-1.9,14.8-3.9,22.1-5.5c3.5-0.7,7.2-1.2,10.7-0.7c1.4,0.2,2.9,3,3.4,4.9c0.2,0.6-2.8,3.1-4.2,2.9
		C48,54.2,39,60,29,61.9c-1.8,6,0.1,11,1.9,15.9c0.4,1.2,2,2.2,2.1,3.3c0,2.1-0.3,4.5-1.3,6.3c-0.6,1-3.5,1.9-4.2,1.3
		c-1.7-1.2-3.3-3.3-3.7-5.2C22.5,77.6,21.9,71.4,21,65.2z"/>
	<path d="M109.8,16c0.9,1.4,3.3,3.5,3.7,5.9c1.3,6.8,1.8,13.8,2.8,20.7c1.8,12.1,3.7,24.3,5.7,36.4c0.4,2.1,2.4,3.9,3,6.1
		c0.5,1.9,0.2,4,0.2,6c-2.2-0.1-5.5,0.8-6.4-0.4c-2.2-2.7-4.1-6.1-4.7-9.5c-2.9-15.6-5.3-31.4-8-47.1c-0.7-3.9-2.1-7.6-3.1-11.4
		C102.1,18.7,104.3,16,109.8,16z"/>
	<path d="M86.3,92.7c-7.9,3.2-9.1,2.6-9.9-4.3c-1.1-10.1-2.3-20.3-3.7-30.4c-0.5-3.9,0.5-7,4.5-7.4c3.6-0.4,5,2.5,5.3,5.8
		C83.8,68.3,85,80.1,86.3,92.7z"/>
	<path d="M82.9,32.3c-3.9,2.8-5.9,5.3-8.1,5.6c-1.8,0.3-4.8-1.6-5.9-3.4c-1.3-2.1,2.6-6.5,5.8-6.2C76.8,28.5,78.8,30.3,82.9,32.3z"
		/>
</g>
</svg>
