<?xml version="1.0" encoding="utf-8"?>
<!-- Generator: Adobe Illustrator 20.1.0, SVG Export Plug-In . SVG Version: 6.00 Build 0)  -->
<svg version="1.1" id="Layer_1" xmlns="http://www.w3.org/2000/svg" xmlns:xlink="http://www.w3.org/1999/xlink" x="0px" y="0px"
	 viewBox="0 0 279.9 104.8" style="enable-background:new 0 0 279.9 104.8;" xml:space="preserve">
<g>
	<path d="M249.7,58c-8.5,2.2-15.8,4.5-23.2,5.9c-18.8,3.6-25.8-4.3-20.4-22.8c1.3-4.5,3.1-8.8,4.9-13c8.5-19.3,36.1-22,48.1-3.7
		c4.4,6.8,5.7,12.3,2.8,20.2c-4.5,12.2-2.5,24.8,1.7,37c1.1,3,2.1,6.1,3.2,9.3c-5.3,3-8.8,1-10.8-2.6c-2-3.7-3.5-7.9-4.3-12
		C250.6,70.4,250.4,64.4,249.7,58z M224.3,58.1c5.3-1.8,10.9-3.1,15.8-5.5c3-1.5,6.5-4.5,7.3-7.4c1.4-5.7,1.1-11.8,1.2-17.7
		c0-1-1.5-2.2-2.6-2.9c-4.4-2.4-8.9-3.9-14.2-3c-12.2,2.1-16.7,14.3-17.6,24.9C213.3,55.4,215.2,57.2,224.3,58.1z"/>
	<path d="M71.4,28.2c-13.6-4.3-26-0.9-39.1,2.3c0.8,8.4,1.6,16.5,2.4,25.7c7.2-0.7,14-1.5,20.8-1.8c3.5-0.1,7.2,0.3,10.4,1.5
		c1.4,0.5,1.8,3.7,2.6,5.6c-1.7,0.3-3.7,1.2-5.2,0.8c-9.9-2.7-18.8,0.9-28.2,3.5c0.4,6,0.8,11.3,0.9,16.5c0.1,2.3,0.3,5-0.8,6.8
		c-1,1.6-3.7,3.1-5.5,2.9c-1.2-0.1-3-3.2-2.9-5c0-4.9,1-9.9,1.3-14.8c0.1-1.5-0.6-3.1-0.9-5c-3,0.6-5.6,1.7-8.1,1.5
		c-1.8-0.1-4.9-1.9-4.9-3c-0.1-1.8,1.5-4.6,3.1-5.3c2.9-1.3,6.3-1.4,10.7-2.2c-0.5-7-0.9-13.9-1.6-20.7c-0.4-3.5-2.6-5.2-6.2-5
		c-3.4,0.2-5.3-2-4.6-4.9c0.4-1.6,3.1-3.4,4.9-3.7c13.5-1.9,27-3.5,40.5-5c2.6-0.3,5.4-0.3,7.9,0.2C73.8,20,74.1,21.3,71.4,28.2z"/>
	<path d="M128.5,71.7c0.5,10.5-2.3,16-14.7,20.7c-8.5,3.2-16.9,3.9-26,0.1c-20.1-8.3-18.2-30.5-9-41.5c1.7-2,3.7-3.8,5.6-5.7
		c6.5-6.6,6.4-6.5,13.7-1.4c1.7,1.2,4.1,1.7,6.2,1.8C120.2,46.2,128.7,55.2,128.5,71.7z M102,52.4c-14.8,0.2-21.6,5.8-21.3,17.4
		c0.3,9.4,10.9,18.9,21.5,18.4c8.7-0.4,18.5-6.1,18-17.2C119.8,59.2,113.4,52.3,102,52.4z"/>
	<path d="M170.1,62.3c5.6,7.7,10.5,14.3,15.3,21c3,4.1,2.9,4.1-1.2,10.1c-7.2-8-14.3-15.7-21.8-24.1c-7.4,5.1-14.5,10.7-20.4,17.8
		c-0.8,1-1.1,2.7-2.1,3.3c-1.5,0.9-4.3,2.2-5.1,1.6c-1.4-1.2-3-4.3-2.4-5.5c1.7-3.4,4.1-6.8,7-9.3c5.9-5.2,12.4-9.9,19.6-15.5
		c-5.7-7-10.7-13.6-16.1-19.7c-6-6.6-6-7.2,3.1-12.4c6.5,8.4,13.1,17,20.3,26.3c3.8-4,9.3-5.2,10.8-11.2c0.3-1.3,3.9-3,5.2-2.5
		c1.6,0.7,3.7,3.6,3.3,5.2c-0.6,2.6-2.4,5.4-4.4,7.3C178.2,57.3,174.7,59.2,170.1,62.3z"/>
</g>
</svg>
