<?xml version="1.0" encoding="utf-8"?>
<!-- Generator: Adobe Illustrator 20.1.0, SVG Export Plug-In . SVG Version: 6.00 Build 0)  -->
<svg version="1.1" id="Layer_1" xmlns="http://www.w3.org/2000/svg" xmlns:xlink="http://www.w3.org/1999/xlink" x="0px" y="0px"
	 viewBox="0 0 437.8 94.9" style="enable-background:new 0 0 437.8 94.9;" xml:space="preserve">
<g>
	<path d="M105.5,72.3c1.5-7.5,2.2-14.8,4.5-21.7c1.7-5.2,4.7-10.4,8.2-14.6c7-8.3,19.4-7.4,25.2,1.9c2.4,3.8,3.9,8.4,4.7,12.9
		c2.1,11.5,6,21.2,19.5,24.1c3.1-5,6.4-10.3,10.1-16.1c-3.8-5.5-7.9-11-11.6-16.9c-3.3-5.2-3.1-5.7,1.8-12.8
		c9.7,3.7,7.7,16.9,17.1,21c5.6-4.2,9.4-11.6,17.6-13.2c3.8,6.1-2.2,7.6-4.4,10.6c-2.4,3.2-5,6.2-7.8,9.7
		c6.1,8.3,13.4,14.3,24.9,17.1c-2.1,2-3.6,4.6-4.9,4.5c-4.2-0.4-8.6-1.1-12.2-3c-4.6-2.5-8.5-6.3-13.5-10.1
		c-1.8,2.2-3.9,4.2-5.3,6.6c-2.2,3.8-4.5,6.2-9.1,7.9c-4.3,1.6-8.1,3.5-11.9,1.4c-4.3-2.2-8.1-5.6-11.5-9c-2-2-2.9-5.1-5-9
		c-3.1,3.5-5.4,6.5-8.1,9.2c-3.5,3.6-6.9,7.3-10.8,10.3c-5.9,4.5-8.6,3.9-13.2-2.3c-1-1.3-1.7-2.8-2.3-3.8c-3.7,0-8.1,1.3-10.1-0.3
		c-3.1-2.5-5.4-6.7-6.7-10.7c-2.1-6.3-3.1-12.9-4.7-19.4c-0.6-2.4-1.7-4.7-3.2-8.6c-2.7,3.7-4.7,6.3-6.4,9c-7.3,11.3-13.5,13.2-26,8
		c-3-1.2-6-2.5-9.8-4C40,59.5,39.8,67,42.2,74.3c2.1,6.6,1.9,7.1-6.1,12.2c-0.9-4.1-2-7.8-2.3-11.4c-0.4-4.3,0.5-8.7-0.1-13
		c-1.2-9.6,0.5-20.2-9.3-27.1c-3.1-2.2-2.7-6.4,0.1-8.8c3.3-2.8,6.4-0.9,8.2,2.4c4.8,8.9,12.2,14.8,21.4,18.5
		c7.2,2.9,11.2,2.3,15.6-4c3.5-5,5.9-11,8-16.8c1.2-3.4,0.7-7.7,5.8-7.7c5,0,5.4,4.2,6.2,7.7C92.1,37,94,47.8,96.7,58.5
		C98,63.7,99.3,69.5,105.5,72.3z M116.9,76.8c10.3-6.1,16.9-13.6,20.7-23.4c1.9-4.8-0.2-9.5-4.4-11.9c-4-2.3-9.2-1.3-12,3.2
		C115.3,54.2,111.5,64.2,116.9,76.8z"/>
	<path d="M356.5,67.7c-2.3,2.1-4.2,5-6.9,6.2c-14.1,6.4-28.8,10.3-44.5,7.3c-12.4-2.4-16.7-8.6-15.2-21.2
		c1.6-13.1,10.6-20.9,20.5-27.6c5.6-3.8,13.3-0.3,16.6,6.1c3.3,6.6,1.7,12.8-4.6,16.2c-5.3,2.8-10.8,4.8-17.2,4.3
		c-2.1-0.2-6.4,2-6.4,2.6c0.5,3,1.2,7.3,3.4,8.4c3.9,2.1,8.8,3,13.4,3.1c13.5,0.2,27-0.5,39.2-7.8C355.3,66.1,355.9,66.9,356.5,67.7
		z M319.9,44.5c-7.1-5.3-9.2-4.6-13.7,3.6C313.1,49.1,313.1,49.1,319.9,44.5z"/>
	<path d="M269.6,29.6c7.2,0.9,9.6,5.8,10.4,11c1.1,7.2,1.3,14.5,1.4,21.8c0,2.5-1,5.3-2.1,7.6c-3.2,6.6-8.9,8.9-15.7,5.9
		c-4.5-2-8.5-5-13.4-8c-3.4,2.5-7.3,6-11.7,8.6c-9,5.5-14.7,3.8-19.4-5.6c-4.2-8.4-3.6-17.5-2.7-26.4c0.3-3.5,3.4-5.8,7.3-5.3
		c4,0.5,4.4,3.9,4.1,6.8c-0.3,2.9-1.8,5.7-2.1,8.6c-0.3,3.5-0.5,7.3,0.5,10.6c1.4,4.7,6.5,6.6,10.4,3.6c4.1-3.1,7.6-7.2,10.6-11.4
		c4.1-5.7,6.1-5.8,9.6,0.2c1.3,2.3,2.6,5,4.7,6.2c2.6,1.5,6.3,2.8,9,2.1c1.5-0.4,2.7-4.7,3-7.4c0.8-8.5,2.3-17.3-4.7-24.5
		C268.3,33.6,269.3,31.5,269.6,29.6z"/>
	<path d="M425.4,84.2c-5.4,5.1-11.9,4.7-15.8-1.4c-4.5-6.9-9.3-14.2-11.4-22c-3.8-14.4-5.9-29.3-8.4-44c-1.1-6.3,1-7.8,9.7-7.5
		c0.2,2.8,0.6,5.7,0.6,8.6c-0.1,17.9,4.3,34.9,10.5,51.5C413.2,76.3,417.5,82,425.4,84.2z"/>
	<path d="M380.2,74.5c2.2-0.6,4-1,6.3-1.6c0.5,5.8-1.3,9.7-6,10.7c-4.7,1.1-7.4-2.8-8.6-6.6c-4.8-16.1-9.3-32.4-13.7-48.6
		c-0.7-2.5-1-5.5-0.2-7.8c0.7-2,3.2-4.3,5.2-4.6c2.9-0.4,4.2,2.1,4.3,5.3C367.8,39.2,371.4,54,380.2,74.5z"/>
</g>
</svg>
