<?xml version="1.0" encoding="utf-8"?>
<!-- Generator: Adobe Illustrator 20.1.0, SVG Export Plug-In . SVG Version: 6.00 Build 0)  -->
<svg version="1.1" id="Layer_1" xmlns="http://www.w3.org/2000/svg" xmlns:xlink="http://www.w3.org/1999/xlink" x="0px" y="0px"
	 viewBox="0 0 365.6 101.7" style="enable-background:new 0 0 365.6 101.7;" xml:space="preserve">
<g>
	<path d="M352.7,72.7c-3.8,6.2-8.5,9.8-15.3,10.6c-13.7,1.6-27.1,2.4-39.9-4.2c-3-1.6-6-2.9-5-8.1c15.3,5.2,30.7,7.4,46.2,4.5
		c0.3-0.9,0.6-1.7,0.9-2.6c-2.8-1.9-5.4-4.5-8.5-5.6c-11-3.8-22.2-6.7-33.1-10.5c-4.9-1.7-9.9-3.9-14.1-7c-5.7-4.3-6.3-12-0.9-16.5
		c8.7-7.3,18.7-12.7,30.9-9.8c3.7,0.9,7,2.6,8,6.6c1.1,4.3,0,7.9-4.6,10c-4.2-2.5-5.4-9.4-12.2-8.2c-5.7,1-11.1,2.1-14.2,7.8
		c1.5,6.7,7.5,6.9,12.3,8.6c11.5,4.1,23.2,7.9,34.7,12C343.8,62.7,349,66.2,352.7,72.7z"/>
	<path d="M14.4,70.7c7.1,4.4,11.9,8,17.1,10.6c13.9,7,27.3,2.5,40.2-3.2c3.9-1.7,4.5-5.2,2.5-9.3c-5.5-10.8-14.6-16-26.2-17.4
		c-7.6-1-15.3-1.5-22.7-3c-5.1-1-10.7-2.5-11.6-9.2c-1-6.8,1.8-11.8,7.7-14.9c8.5-4.4,17-9,26-12.4c7.9-3,12.8,1.2,14.4,11.2
		c-13.9-7.4-25.4-1.2-36.2,6.5c-6.3,4.5-5.6,8,1.6,10.2c6.6,2,13.6,3.2,20.5,3.9c12.1,1.3,22.6,5.4,30.2,15.3c2.2,2.9,4,6.2,5.2,9.6
		c2.1,6,0.9,10.7-4.6,13.9c-13.6,8-28.1,12-43.9,8.2c-7.7-1.9-13.3-7.3-18.4-13.1C14.9,76.6,15.1,74.3,14.4,70.7z"/>
	<path d="M108,58.3c-1.2,8.1,1.4,14.3,2.7,20.6c0.3,1.3,1.5,2.6,1.3,3.6c-0.3,1.8-1.5,4.7-2.3,4.7c-1.9,0-4.7-1-5.6-2.4
		c-1.4-2.5-1.7-5.7-2.3-8.6c-2.6-11.6-5-23.3-7.8-34.9c-0.8-3.2-2.4-6.1-4-9c-1.8-3.4-0.7-6,2.2-7.6c3.6-2,5.8,0.8,6.8,3.7
		c1.8,5.3,3,10.7,4.8,17.2c11-3.2,21.1-6.9,29.8-13.6c2-1.5,2.1-5.4,3.7-7.7c1.3-1.8,3.8-2.9,5.7-4.3c1.1,1.9,2.7,3.7,3,5.7
		c0.7,4.4-1.6,7.9-5.1,10.1c-6.5,3.9-13.3,7.4-20,11c-1.7,0.9-3.5,1.7-6.8,3.2c7.6,3.9,14.3,6.9,20.4,10.7
		c7.8,4.9,15.3,10.3,22.8,15.8c2.1,1.5,4.3,3.8,1.7,6.7c-2.3,2.6-4.7,1.1-7.1-0.4c-10.6-6.3-21.1-12.5-31.8-18.7
		C116.4,62.1,112.5,60.5,108,58.3z"/>
	<path d="M277.7,81.9c-2.6,6.9-6.8,6.7-10,4.1c-3.7-3-7.3-7-9.2-11.3c-5.6-12.4-10.3-25.2-15.6-37.7c-2-4.9-4.7-9.5-6.8-14.4
		c-1.1-2.6-2.9-5.9,1.1-7.7c3.8-1.7,6.1,0.2,7.6,3.9c6.7,16.6,13.9,33.1,20.2,49.8C267.3,74.8,269.7,80.2,277.7,81.9z"/>
	<path d="M229.8,77.4c-0.7,1-2.4,3.3-4,5.4c-5.9-1.4-8.4-5.3-9.9-9.7c-2.9-8.4-5.3-17.1-8.1-25.6c-2.3-6.9-4.8-13.7-7.2-20.5
		c-0.4-1.2-1-2.4-1.4-3.7c-1-3.1-1.1-6.5,2.6-7.2c1.8-0.3,5.2,1.7,5.9,3.5c3.1,7.3,5.6,14.8,7.9,22.4c1.9,6.3,2.7,13,5,19.2
		C222.5,66.3,225.9,70.7,229.8,77.4z"/>
	<path d="M185.6,88.1c-0.9-1.6-2.9-3.5-2.6-4.9c2-11.9-4.9-21.7-7.5-32.5c-0.2-0.6-0.7-1.2-0.9-1.8c-1-3.2-2.6-6.8,1.8-8.5
		c3.6-1.4,5.8,1.7,6.7,4.5c3.8,11.5,10.2,22.6,8.5,35.4c-0.4,2.8-2,5.5-3.1,8.2C187.5,88.4,186.5,88.3,185.6,88.1z"/>
	<path d="M161.6,9.5c2.7,2.2,5.9,4.3,8.4,7.1c2.6,2.8,1.1,6.4-2.6,6c-3.3-0.3-7.3-1.5-9.3-3.7C155.3,15.8,156.8,12.1,161.6,9.5z"/>
</g>
</svg>
