<?xml version="1.0" encoding="utf-8"?>
<!-- Generator: Adobe Illustrator 20.1.0, SVG Export Plug-In . SVG Version: 6.00 Build 0)  -->
<svg version="1.1" id="Layer_1" xmlns="http://www.w3.org/2000/svg" xmlns:xlink="http://www.w3.org/1999/xlink" x="0px" y="0px"
	 viewBox="0 0 186.6 95.1" style="enable-background:new 0 0 186.6 95.1;" xml:space="preserve">
<g>
	<path d="M172.5,85.6c-10.9-2.2-13.7-11.1-17.3-18.5c-2.6-5.3-3.5-11.4-5.2-17.1c-0.9-3.1-2.1-6.1-3.4-9.9
		c-4.6,5.5-8.3,10.6-12.7,15c-12.4,12.2-19.3,11-27.6-4.2c-2.2-4-4.6-7.9-6.9-11.8c-0.7,0.2-1.5,0.4-2.2,0.6
		c0.8,7.3,1.5,14.5,2.3,21.8c0.3,3,0.8,5.9,1.3,8.9c0.9,4.6-0.7,7.8-6,9.9c-0.8-1.9-2.1-3.8-2.3-5.8c-1.3-10.6-2.3-21.2-3.5-31.7
		c-0.7-6.3-2-12.3-6.1-17.7c-3.4-4.5-0.7-9.2,4.9-9.9c5.5-0.7,9.7,1.4,12.4,6.4c3.9,7.3,8,14.6,12.1,21.9
		c5.6,10.1,10.6,14.6,21.7,1.3c5.5-6.6,10.1-14.1,8.4-23.7c-0.6-3.6,0.7-6.5,4.6-7.8c4.1-1.3,6.6-0.3,7.3,3.9
		c0.9,4.9,1.7,9.8,1.8,14.8c0.4,16.2,5.9,30.6,14.6,44C173.1,79.8,173,79.8,172.5,85.6z"/>
	<path d="M5.7,32.6c0.7-8.7,4-13.4,9.2-15.9C25,11.9,35.6,8,47.2,7.4c8.9-0.5,13.4,4.7,17.4,11c3.7,5.9,3.8,11.9-1.1,17.5
		c-0.4,0.4-0.4,1.2-0.7,2.4c1.8,1.5,4.2,2.8,5.6,4.9c3.3,4.8,7.3,9.7,9,15.2c3.6,11.6-1.7,22.3-13.2,25c-10.2,2.4-21,2.9-31.5,2.7
		c-4.2-0.1-8.6-4.3-12.4-7.2c-1.3-1-1.1-3.9-2.1-8.5c13.1,11.9,26.3,10.2,39.5,7.6c5.3-1.1,10.6-2.7,12.4-8.7c1.8-6.4-0.7-12-5-16.4
		C60.7,48,54.9,45.2,48,46.8c-5.8,1.4-11.5,3-17.3,4.3c-4.2,1-7.6-1.1-8-4.9c-0.4-3.8,2.3-6.4,6.6-7c6.8-0.9,13.7-1.7,20.4-3.3
		c4.3-1.1,9.4-2.6,9.3-8.7c-0.1-5.3-6-11.9-11.8-11.5c-7.1,0.5-14.4,2.1-21.2,4.6c-4.7,1.8-8.6,5.9-12.9,8.8
		C11.3,30.3,9.3,30.9,5.7,32.6z"/>
</g>
</svg>
