<?xml version="1.0" encoding="utf-8"?>
<!-- Generator: Adobe Illustrator 20.1.0, SVG Export Plug-In . SVG Version: 6.00 Build 0)  -->
<svg version="1.1" id="Layer_1" xmlns="http://www.w3.org/2000/svg" xmlns:xlink="http://www.w3.org/1999/xlink" x="0px" y="0px"
	 viewBox="0 0 405.1 101.9" style="enable-background:new 0 0 405.1 101.9;" xml:space="preserve">
<g>
	<path d="M191,78.4c-14,5.9-26.2,15.8-42.7,9.5c0.3-0.1-0.4,0-0.9,0.3c-10.9,7.6-14.5,6.3-17.1-6.8c-1.2-5.9-1.9-11.9-2.1-17.8
		c-0.2-7.9-6.9-8.8-11.8-4.7c-7.4,6.2-12.2,13.9-14.9,23.1c-1.3,4.5-2.6,9.1-9.8,9c-0.5-2.3-1.7-4.8-1.6-7.2
		c0.4-9.6,1.1-19.2,1.7-28.8c0.1-1.3,0.1-3.1,1-3.8c1.8-1.5,4-2.5,6.1-3.8c0.7,2,2.1,4,2,5.9c-0.1,3.5-1.1,7-0.4,11.2
		c1.8-2.2,3.5-4.6,5.5-6.6c3.5-3.6,6.8-7.4,10.8-10.2c9.1-6.4,16.7-3.1,18.5,8.1c1.1,6.9,1.7,13.9,2.8,20.8c0.4,2.3,1.7,4.4,3.5,6.7
		c4.5-25,21.4-35.1,44.5-39.8c1-5.1,1.7-11,0-17.3c-2-7.4-0.7-9,7.6-11c0.7,2.8,2.1,5.6,1.9,8.4c-1.2,16.3,1.3,32.4,3,48.5
		c0.5,4.6,0,9.3-0.6,13.9c-0.2,1.4-2.2,2.7-3.3,4c-1.2-1.3-3.1-2.5-3.6-4C190.6,83.9,191,81.5,191,78.4z M179.5,54.7
		c-10.7,0.7-17.6,6.9-23.7,13.9c-1.7,1.9-3.1,6.2-2.1,7.8c1.4,2.3,5.2,4.4,8,4.4c9.6-0.1,18-4,25.4-10.1c3.1-2.5,3.1-5.4-0.2-8.3
		C184.1,60.2,181.8,57.3,179.5,54.7z"/>
	<path d="M347,63.1c-0.6,10.7,2.3,14,12.3,13.3c12.6-0.9,25.1-2.4,37.7-3.6c1.6-0.1,3.1,0,4.7,0c1,4.7-2.3,5.8-5,6.4
		c-8,2.1-16.1,4.1-24.3,5.3c-6.2,0.9-12.6,0.8-18.9,0.8c-8.7-0.1-15.4-6.1-16.5-14.3c-2.1-15.3,6.2-31.2,20-38.3
		c2.3-1.2,5-1.8,7.5-2.3c6.8-1.3,10.1,0.1,12.7,4.8c3.7,6.5,3.5,11.8-0.8,16.5c-5.6,6.2-12.6,9.7-20.9,10.5
		C352.7,62.5,349.8,62.8,347,63.1z M349.8,51.4c7.7,3.4,13.1,0.6,17.9-3.8c1.4-1.3,1.6-3.9,2.4-5.9c-2.3-0.7-5-2.5-6.9-1.9
		C357.6,41.5,352.8,44.9,349.8,51.4z"/>
	<path d="M17.2,23.7c1.7,9.3,0.3,16.3,0.1,23.4c-0.3,7.9-0.4,15.9,1,23.7c1.9,10.5,13.3,18.5,23.8,16.7c6.7-1.1,13.6-3.5,19.5-6.8
		c8.8-5,12.1-13.9,12.4-23.6c0.4-11.9,1.5-23.9-3.2-35.5c-0.6-1.4,0.4-3.5,0.8-5.7c4.6,0.4,6.6,3,7.3,6.3c4.2,18.5,5.5,37-3.5,54.5
		c-8.9,17.4-35.9,24.4-52,14.4c-5.7-3.5-9.5-8.5-11.2-14.7c-4.4-15.8-2.6-31.6,1.1-47.3C13.7,27.8,15,26.7,17.2,23.7z"/>
	<path d="M277,52.8c5.3-4.9,9.4-10.3,14.9-13.6c12.1-7.4,22.1-2.8,24.2,10.5c1.5,9.7,4.9,19.1,7.6,29.1c2.7-0.8,4.2-1.5,5.7-1.6
		c3.2-0.1,4.6,2.3,2.7,4.4c-2.5,2.8-5.9,5.5-9.4,6.4c-4.1,1-6.4-2.8-7.4-6.6c-2.1-7.7-4-15.4-5.7-23.1c-1.1-4.9-1.9-10.6-6.9-12.3
		c-6.1-2-10.7,2.3-14.2,6.9c-4.7,6.2-8.3,12.7-6.4,21.1c0.5,2.4-0.6,6-2.3,8c-3,3.6-6.9,2.2-7.8-2.5c-1.6-8.5-2.9-17-4.3-25.4
		c-0.1-0.7-0.2-1.3-0.2-2c0.1-3.5-1.1-8.3,4-8.8c6-0.6,3.6,4.9,4.6,8C276.1,51.8,276.6,52.3,277,52.8z"/>
	<path d="M259.3,63.2c-0.3,17.4-19,30.5-34.8,24.3c-9.8-3.9-14.7-12.9-12.4-23.1c3.8-17.3,14.9-24.8,32.5-21.9
		C253.6,44,259.5,52.3,259.3,63.2z M251.2,65.6c0-7.1-3.9-13.3-9.4-14.7c-7.8-2-21.3,8.1-21.5,16.3c0,1.6,0.3,3.3,1,4.8
		c2.5,6.1,10.2,10.1,16.2,8.6C245.1,78.7,251.2,72.1,251.2,65.6z"/>
</g>
</svg>
