<?xml version="1.0" encoding="utf-8"?>
<!-- Generator: Adobe Illustrator 20.1.0, SVG Export Plug-In . SVG Version: 6.00 Build 0)  -->
<svg version="1.1" id="Layer_1" xmlns="http://www.w3.org/2000/svg" xmlns:xlink="http://www.w3.org/1999/xlink" x="0px" y="0px"
	 viewBox="0 0 1546.8 190" style="enable-background:new 0 0 1546.8 190;" xml:space="preserve">
<g>
	<path d="M1296.1,92.4c12.3-5.1,18.7-14.1,22.9-24.8c2.2-5.8,3-12.2,4.4-18.4c0.6-2.6,0.2-5.8,1.6-7.7c1.8-2.4,4.7-4.6,7.6-5.5
		c3.6-1.1,6.7,1.6,7.5,5c1,4,2.1,8.6,1.1,12.4c-5.7,21.5-4.1,42.8,0.7,65.2c1.9-1.4,3.9-2.1,4.5-3.5c4.6-9.9,9.3-19.9,13.2-30
		c3.4-8.8,10.1-10.8,16.4-3.5c3.6,4.2,6.5,9.2,8.6,14.3c3.7,8.9,6.3,18.2,9.8,27.2c3.1,8.2,6.2,9.8,14.3,8.3
		c0.3-15.6,7.1-28.2,17.5-39.8c16.7-18.6,34-12.5,41.8,8.5c1.7,4.6,1.1,10.5,0.3,15.6c-1.2,8.5,0.2,11.5,8,14.4
		c5.8,2.2,11.2,1,16.5-0.9c5.6-2,7.8-6.4,6.5-12.7c-5.7-26.7-4.9-53.6-2.2-80.5c0.7-6.9,2.2-13.9,4.3-20.5c0.8-2.6,4-5.7,6.6-6.2
		c1.9-0.4,5.8,2.6,6.6,4.8c1.3,3.8,1.7,8.4,0.9,12.3c-6.4,33.9-6.9,67.5,4.5,100.5c2.3,6.7,4.1,14,12.4,16.9
		c3.7,1.3,3.4,5.5,2.5,8.8c-1.1,4.1-3.7,7-8.4,7.4c-5.3,0.4-8.9-2.4-11.9-6.2c-2.7-3.4-4.8-7.1-7.5-11.1
		c-17.7,9.2-34.8,10.3-50.9-4.6c-2.2,1.8-4.3,3.7-6.6,5.4c-4.3,3.1-8.4,6.5-13.1,8.8c-12.1,5.8-18.5,3.6-26.2-8.7
		c-1.6,1.4-3,3.5-4.8,4c-7.8,2.1-11.3,3.5-17.7-4.2c-6.9-8.4-10.4-18.5-14.5-28.3c-1-2.3-2-4.6-3.3-7.7c-7.6,13.3-14.6,25.5-21.7,38
		c-1.9,0.6-3.8,1.3-5.7,1.6c-6.2,1.1-9.7-0.4-11.5-6.5c-3.1-10.1-5.4-20.5-7.9-30.9c-1-4-1.4-8.2-2.3-13.1
		c-7.8,5.7-14.5,10.5-21.6,15.8c1.5,6.1,3,12.2,4.4,18.3c0.7,2.9,1.2,5.9,1.6,8.8c0.5,3.9,0.1,7.6-4.4,8.8
		c-4.3,1.2-8.2-0.2-10.3-4.1c-1.6-2.8-2.3-6.2-3.2-9.4c-1.4-5.4-2.6-10.9-4-16.9c-4.7,0.5-8.7,1.4-12.6,1.2
		c-6.9-0.3-13.9-0.7-20.6-2.3c-3.2-0.7-6.3-3.7-8.6-6.4c-3.2-3.9-2.7-10,0.7-12.6c3.7-2.9,8.4-3.5,11.9-0.3
		c7.8,7.1,15.9,4.3,24.7,2.1c-0.9-9.4-2.2-18.2-6.2-26.3c-1.8-3.6-2.2-6.9-0.3-10.4c3.6-6.5,11.4-7,15.3-0.7
		c1.7,2.8,2.5,6.1,3.3,9.3C1292.9,78,1294.3,84.5,1296.1,92.4z M1427,138.1c3.6-2.2,6.6-3.4,8.9-5.4c6.3-5.4,11.4-11.7,15.2-19.3
		c4.9-9.8,5-11-4.4-17C1430.9,104.8,1422.5,121.1,1427,138.1z"/>
	<path d="M281.7,136.1c-5.3,6.5-10.1,12.2-14.8,18.2c-3.6,4.5-7.2,8.7-13.5,9.2c-1.7,0.1-3.4,1.7-5,2.7c-6.5,4.1-12.7,4.6-18.3-0.7
		c-6.1-5.8-10.9-13.1-16.5-19.9c-4.9,4.6-10.2,10.5-16.3,15.2c-7.6,5.9-16.2,8.9-26.1,5.2c-11.8-4.4-15.2-14.3-16.3-25.2
		c-1.8-18.4,5.5-33.8,18-46.9c1.4-1.4,2.9-3.2,4.7-3.6c13.5-3,27-4.2,39.7,3.1c6.7,3.8,10,9.4,9.4,17.2c-0.9,10.7-1,21.3,3.8,31.3
		c0.7,1.5,1.1,3.2,1.8,4.6c4.4,8.3,8.9,9.4,15.5,3c5.2-5,9.7-10.9,14.3-16.6c2.7-3.3,5.1-6.9,8.1-10.9c-4.8-8-11.6-14.2-18.2-20.6
		c-2.8-2.7-5.6-5.9-6.9-9.4c-0.8-2.2,0.1-6.4,1.8-7.8c1.8-1.4,6-1.4,8.1-0.2c4.2,2.5,7.9,6,11.4,9.5c4.2,4.2,8.1,8.7,12.5,13.5
		c5.9-3.7,8-9.9,11.7-14.7c1.6-2.1,2.7-4.6,3.9-7c1.9-3.9,4.1-7.1,9.2-5c5.1,2.1,7.9,8.3,5.5,13.2c-2.1,4.5-5,8.7-7.5,12.9
		c-0.5,0.9-1.2,1.6-1.8,2.4c-10,13.7-10.3,14,2.5,25.8c6.4,5.9,12.4,13.2,22.6,13.4c1.6,0,4.3,2.8,4.3,4.4c0.1,2.7-0.8,6.4-2.6,7.8
		c-4.3,3.4-9.4,4.6-14.9,1.8c-8.1-4.1-15.2-9.3-21.2-16.3C288.1,142.8,285.1,139.7,281.7,136.1z M210.4,115
		c-1.3-11.5-4-13.2-15-13.1c-19.9,0.2-30.6,33.4-23.7,45.9c2.5,4.5,6.6,5.3,11.9,2.3c8.6-4.8,15.3-11.7,20.3-20.1
		C206.6,125.4,208.2,120.1,210.4,115z"/>
	<path d="M1182.2,108.5c1.9-4.4,3.5-9,5.8-13.3c4.3-8.3,8.9-16.2,19-19.2c6.3-1.9,11.7-0.9,14.9,4.4c3.6,5.8,6.2,12.4,8.4,18.9
		c3.8,11.7,6.8,23.6,10.5,35.3c1.1,3.4,3,6.8,5.5,9.3c3.9,4,4.1,8,2.1,12.7c-10.2,4.3-12.1,4.4-16.8-4.5c-4.9-9.3-8.6-19.4-12-29.4
		c-2.9-8.7-4.7-17.9-6.9-26.6c-5.7-0.8-8.3,2.3-9.8,6.1c-5.8,14.4-15.2,27.4-16.2,43.6c-0.2,4.2-3.3,7.2-7.8,8
		c-4.3,0.8-7-1.8-9.2-4.8c-1.5-2.1-2-4.8-3.3-8c-9.2,9.9-20.6,13-32.7,16.3c-13.7,3.7-28.3-5.8-32.7-19.4
		c-5.9-18.4-3.7-37.6,15-50.5c1.3-0.9,2.7-2,4.2-2.5c9.7-3,27.5,9,28.1,19.2c0.4,6.5-0.6,12.7-8.2,15.3c-8,2.7-16,5.6-24.3,8.5
		c0.4,7.6,3.9,11.6,12,12.5c13.4,1.6,29.8-7.2,35.4-19.4c1.6-3.5,1.9-7.7,2-11.6c0-7.6-0.5-15.3-0.9-22.9c-0.3-5.4,1.1-9.8,6.5-12.3
		c6.2,2.6,9.5,6.9,9.2,13.8c-0.2,5.3-0.2,10.6-0.2,15.9c0,1.5,0.5,2.9,0.7,4.4C1181.1,108.3,1181.6,108.4,1182.2,108.5z
		 M1122.6,104.2c0.3,0.6,0.6,1.2,0.9,1.8c1.6-0.8,3.3-1.6,6.2-3c-2.4-0.4-3.4-0.9-4.2-0.7C1124.5,102.6,1123.6,103.5,1122.6,104.2z"
		/>
	<path d="M114.2,72.6c-6.2,7.3-10.7,13.1-15.8,18.3c-7.9,8-15.9,16.1-24.7,23.1c-7.4,5.9-12.9,4.8-18-1.9
		c-4.4-5.8-9.5-10.9-15.5-17.7c0,3.4-0.2,5.1,0,6.8c2.1,15.1,4.4,30.2,6.5,45.3c0.2,1.6,1.1,3.7,0.4,4.9c-1.3,2.4-3.1,5.1-5.4,6.3
		c-2.9,1.6-6.3,0.3-7.4-3c-2.1-6.2-4.2-12.6-5.1-19.1c-2.9-19.7-5.2-39.5-8-59.3c-0.7-5.2-2.2-10.4-3.4-15.6
		c-1.6-7.1,0.9-9.9,8.2-9.6c6.1,0.2,10,3.4,12.6,8.4c2.3,4.4,4,9.1,6.1,13.7c4.5,9.7,10.2,18.4,18.4,25.2
		C82.9,86.6,96.1,69.6,108,51.5c2.1-3.2,2.8-7.3,3.9-11.1c2.4-8,4.1-9.3,12-8c5.9,0.9,8.2,4.3,7.9,11.6c-0.4,10.6-1.1,21.2-1.1,31.8
		c0,26.1,3.2,51.7,11.7,76.5c0.8,2.5,2.6,4.6,3.8,6.9c1.7,3.2,2,6.4-0.7,9.2c-2.6,2.6-9.4,2.7-11.9-0.2c-2.1-2.4-3.7-5.5-4.9-8.5
		c-7.1-18.8-10.3-38.4-12.2-58.3C115.7,92.5,115.1,83.6,114.2,72.6z"/>
	<path d="M855.7,103.8c5.9-3.5,10.9-7.4,16.7-9.6c8.1-3.1,16.6-2.8,23.4,3.4c5.9,5.4,8.8,12.3,6.2,20.7c-2.8,9-10.6,11.5-18.2,13.5
		c-6,1.6-12.5,1-18.7,1.4c-3.5,11.3,0.5,19.2,11.4,20.7c10.8,1.6,21.3,0.9,28.4-9.8c1.2-1.8,4.5-3.6,6.2-3.2
		c1.8,0.4,3.6,3.5,4.1,5.7c1.9,8.8-3.3,18.1-12.3,21.6c-12.6,4.9-25.5,5.4-38,0.3c-6.9-2.8-12.1-8.1-14.7-15.5
		c-2.9-8-3.5-16.2-1.8-24.6c0.7-3.5,1.4-7.1,2.1-10.5c-3-2.1-5.6-4.1-8.3-5.9c-10.7-7.3-21.4-6.2-30.5,3.2c-8.7,8.9-9,19.1-1,29.7
		c1.2,1.6,2.9,2.9,3.8,4.6c2.7,4.7,1.7,10.3-1.9,12.3c-6.3,3.5-11.9,3-14.7-2.6c-3.8-7.7-6.5-15.8-9.5-23.9c-1.5-4-2.6-8.2-3.9-12.3
		c-0.4-1.3-1.2-2.4-1.7-3.6c-1.7-4.6-2.5-9.4,0.8-13.3c3.8-4.5,8.5-1.8,13.3-0.2c9.1-6.6,16.8-16.7,29.6-16.3
		C838.4,89.9,848,95.9,855.7,103.8z M883.7,113.5c-0.2-0.9-0.3-1.8-0.5-2.7c-4.5-2.2-8.1-1.3-10,5
		C876.7,115,880.2,114.2,883.7,113.5z"/>
	<path d="M386.5,143.8c-3,5.7-6.6,13.9-11.3,21.5c-2.9,4.7-7,9-11.4,12.3c-6.3,4.8-12.1,4-18-1.1c-7-6-10.7-13.9-10.7-22.8
		c0-13.6,0.8-27.2,1.6-40.8c0.4-5.6,1.3-10.9,0.2-16.7c-0.8-4.1,0.4-9.5,2.6-13c3.7-5.7,10-6.2,14.8-2.9c6,4.1,8.6,10.4,5.5,16.3
		c-9.3,17.2-8.8,35.9-8.7,54.5c0,3.5,1.1,7,1.7,10.2c5.8,0.7,7.6-3,9-6.1c6-12.9,11.5-26.1,17.3-39.2c0.1-0.3,0.1-0.7,0.2-1
		c1.7-7,5-10.7,9-10.2c5.2,0.6,9.9,6.6,9.5,13.2c-0.4,6.7,1.7,12.4,4.9,17.9c3.5,5.9,6.6,8.1,16.1,10.9c1.1-2.8,3-5.6,3.3-8.6
		c1.1-11.4,0.5-22.6-6.1-32.7c-2-3-4-6.3-4.8-9.8c-0.5-2.1,0.8-5.2,2.4-6.9c0.7-0.8,4.2,0.2,5.9,1.3c8.2,5.2,13.9,12.4,16.4,21.8
		c3.5,12.8,4.1,25.6,0.1,38.4c-4.1,13.1-13.4,17.2-25.2,10.7c-4.3-2.4-8.2-5.6-12.2-8.5C394.3,149.5,390.3,146.6,386.5,143.8z"/>
	<path d="M704.1,102.6c-2.6-12.7-3-13.1-14.9-14.1c-10.8-0.9-15.1-6-12.2-14.5c1.2-3.5,3.6-5.8,7.4-5.4c20.2,2.4,39.5-4,59.2-5.8
		c12.4-1.2,24.5-1.6,36.3,3.3c7.6,3.2,7.7,3,7.5,13.9c-3.6,0.3-7.6,1.5-11.1,0.8c-14.4-3-28.4-0.7-42.5,2.2
		c-5.4,1.1-10.8,1.9-16.6,2.8c2,8,3.7,14.7,5.5,22c7.9,0,15.5-0.3,23.1,0.1c6.9,0.3,13.8,1.3,20.7,2.1c3.2,0.4,5.7,1.8,5.9,5.6
		c0.2,3.3-0.8,6-4.3,7c-4.1,1.1-8.1,2.7-12.3,3c-9.9,0.7-19.8,0.7-30.2,1c-1.3,9.8,1.1,18.4,2.4,27.1c0.6,4.3,1.7,8.5,2.2,12.8
		c0.4,3,0.4,6.3-3.5,7.3c-4,1-8.3,1.4-10.6-2.9c-1.5-2.9-2.5-6.2-3-9.4c-1.8-10.8-3.2-21.7-4.9-32.9c-5.9-2.3-13-3-14.1-11.5
		C693.2,109,698,105.7,704.1,102.6z"/>
	<path d="M1067.4,136.3c-10.9,5.2-20.7,10.7-31.2,14.6c-13.5,5-27.9-1.7-30.8-13.6c-2.5-10-1.3-19.9,4.4-28.7
		c9.7-14.9,23.7-21.6,41.3-21.4c1.2,0,2.5,0,5.1,0c-1.4-13.9-2.5-27.4-4.2-40.9c-1-8.3,0.3-12.9,5.5-14c6-1.3,10.2,2.1,11.3,10.8
		c1.7,14.2,2.5,28.4,3.7,42.6c0.3,3.9,0.4,7.4,5.1,9.5c4.5,2,3.1,6.7,2.3,10.7c-1.3,6.6-1.8,13.1,1.3,19.5c1.9,3.7,3.5,7.1,8.3,7.5
		c3.4,0.3,6.2,2.4,5.2,5.8c-1,3.2-3,7.2-5.7,8.4c-5.3,2.4-11.1,1.9-15.4-3.2C1071.4,141.1,1069.1,138.4,1067.4,136.3z M1061.7,117.8
		c-1.4-3.6-1.9-8.3-4.4-10.4c-5.7-4.7-12.3-6.2-19.7-1.7c-6.8,4-13.1,8-15.7,15.8c-3.3,9.8,0.3,14.1,10.4,12.3
		C1043.4,131.7,1052.3,125.3,1061.7,117.8z"/>
	<path d="M466.3,127.5c-2.7,17.9,7.3,29.5,23.8,28.4c15.6-1,27.7-8.8,37.7-20.2c2.6-3,4.8-7.8,9.3-4.8c4.5,3,0.8,7.3-0.7,10.7
		c-7.6,16.4-19.9,26.9-38.2,29.9c-27.2,4.4-48.5-10.9-48.7-40.8c-0.1-21.1,9.5-35.5,27.7-44.6c7.6-3.8,15.7-3.6,22.6,1.7
		c6.9,5.2,9.1,13.9,5.5,22.6c-1.4,3.4-4.3,6.9-7.4,8.9c-6.4,4.1-13.3,7.6-21.4,7.3C473.3,126.3,470,127.1,466.3,127.5z M488.7,100.2
		c-7.3,0.5-11.6,2.7-15.4,8.6C479.8,107.7,485.3,107.7,488.7,100.2z"/>
	<path d="M922.9,108.5c-0.1-0.8-0.2-2.8-0.3-4.8c-0.3-4.2,1.1-8.1,5.4-8c3,0,6.6,2.4,8.9,4.7c1.6,1.6,1.5,4.9,1.9,7.5
		c0.6,4.6,0.9,9.3,1.6,13.9c1.6,10.3,8.7,17.8,17.7,18.8c8.7,1,19.4-5.7,22.9-14.5c3.5-8.7,2.5-17.7,1.9-26.6
		c-0.2-2.2-2.5-4.4-4.3-6.3c-2.8-3.1-2.2-6-0.2-9c2.2-3.2,5.2-2.6,8-1.4c5.8,2.5,9.9,6.9,11.2,13.2c2.9,13.6,1.9,27-2.6,40.3
		c-5.3,15.7-28.5,26.1-44.9,21.3c-9.2-2.7-16-9.4-20.5-18C925.1,130.7,923.5,123.2,922.9,108.5z"/>
	<path d="M591.9,51.4c5.3-0.3,10.6,4.1,11.7,9.5c2.6,13,4.5,26.2,7.3,39.2c3,13.9,6.4,27.8,10.5,41.5c1.3,4.5,4.8,8.7,8.2,12.2
		c3.3,3.5,4.6,6.5,1.6,10.4c-2.5,3.4-7.7,4.3-11.7,1.7c-6.5-4.1-10.3-10.4-12.6-17.5c-2.9-9.2-5.7-18.4-7.7-27.8
		c-4.1-18.8-7.8-37.7-11.6-56.6c-0.5-2.5-0.7-5.5,0.2-7.8C588.6,54.1,590.9,52.5,591.9,51.4z"/>
	<path d="M564.7,105.5c1.1,12.3,2.1,23.6,3.1,34.9c0.3,3.8,1.5,6.8,4.8,9.3c4.4,3.4,4.7,7.4,1.7,12c-2.3,3.5-7.5,5.1-11.4,2.3
		c-3-2.1-6-5.6-6.9-9.1c-2.3-8.6-3.8-17.5-4.9-26.4c-2.6-21.4-4.7-42.9-7.1-64.4c-0.7-6.1,1.3-10.8,5.1-11.4
		c4.4-0.6,9.7,2.8,10.7,8.4c2.1,12.4,3.4,25,4.9,37.5C564.9,101.2,564.7,103.9,564.7,105.5z"/>
</g>
</svg>
