<?xml version="1.0" encoding="utf-8"?>
<!-- Generator: Adobe Illustrator 20.1.0, SVG Export Plug-In . SVG Version: 6.00 Build 0)  -->
<svg version="1.1" id="Layer_1" xmlns="http://www.w3.org/2000/svg" xmlns:xlink="http://www.w3.org/1999/xlink" x="0px" y="0px"
	 viewBox="0 0 1362.7 166" style="enable-background:new 0 0 1362.7 166;" xml:space="preserve">
<g>
	<path d="M1064.6,84c3.2-2.7,5.6-4.9,8.1-6.9c7.1-5.5,16.1-6.2,22.3-1.9c7.2,5,7.5,13.5-0.2,17.6c-7,3.7-14.7,6-22.1,8.8
		c-1.8,0.7-3.8,1-5.4,1.4c-1.9,14.6,4,21.2,17.4,19.4c10.8-1.4,20.5-4.8,27.8-13.8c5-6.2,6.9-12.7,5.6-20.3c-0.4-2.3-1.1-4.6-1-6.9
		c0.2-3.6,2.3-7.5,5.9-6.4c4.5,1.3,6.6-0.9,9.5-3.1c8.3-6.4,20.6-6.1,28.7,0.7c1,0.9,2,3.7,1.7,4c-1.2,1.1-3.1,2-4.8,2
		c-1.5,0.1-3.1-1-4.7-1.4c-12.2-3.5-21.7,2.1-23.2,14.6c-0.7,5.8,0.7,11.8,1,17.8c0.1,2.9,0.4,5.9-0.4,8.6c-0.4,1.4-3,3-4.5,2.9
		c-1.4-0.1-3.1-2.2-3.7-3.8c-0.8-2.4-0.8-5.2-1.4-9.4c-2.5,2.5-4.4,4.1-5.9,6c-9.5,12.1-22.3,17.5-37.2,17.9
		c-9.1,0.3-15.1-4.1-18.1-12.6c-2.1-5.9-4.2-11.9-2.5-18.5c0.6-2.2,0.4-4.6,0.6-8.2c-2.9,1.6-4.9,3-7,3.8
		c-9.9,3.9-19.7,7.8-29.8,11.3c-7.6,2.6-8.5,4.5-4,10.7c2.5,3.5,1.8,10-1.8,11.9c-1.3,0.7-3.8,0.1-5.2-0.8c-1.2-0.8-1.8-2.8-2-4.4
		c-1.8-19.6-0.8-39,2.1-58.5c5.5-0.3,7.6,1.3,6.6,6.3c-1,5.2-1.9,10.5-2.4,15.8c-0.4,3.9-0.1,7.9-0.1,13.2
		c13.8-3.8,26.8-6.2,37.3-15c5.9-5,7-9.7,2.4-15.6c-3.3-4.3-7.9-8.6-12.8-10.4c-13-4.8-26.2-3.7-38.7,2.6c-2.5,1.3-4.5,3.7-6.6,5.8
		c-1.4,1.4-2.2,3.8-3.8,4.3c-1.9,0.7-4.6,0.6-6.3-0.4c-1-0.6-1.4-3.6-0.9-5.2c0.5-1.7,1.9-3.4,3.4-4.6c18.1-13.9,38-17.3,59-8.1
		c9.8,4.3,16.7,12.1,16.6,24C1064.1,80.4,1064.3,81.6,1064.6,84z M1074.1,89.1c8.7,1.8,9.2,1.6,12.7-4.3
		C1079.2,83.4,1079.2,83.4,1074.1,89.1z"/>
	<path d="M106.6,73.2c-1.3-8.4-2.7-15.6-3.3-22.9c-0.2-1.7,1.6-4.6,3.1-5.1c2.9-0.9,5,1,5.4,4.2c0.1,1,0,2,0.2,3
		c0.8,5.5,1.6,11.1,2.5,17.2c6.3-0.6,12.4-0.2,18-1.8c12.1-3.4,22.3,1.9,32,6.8c9.2,4.7,10.9,16.8,6.2,28.6
		c-3.8,9.6-14.2,16.3-23.5,15.1c-8.1-1-15.7-8.5-16.9-17.4c-0.6-4.6-0.4-9.3-0.1-13.9c0.6-8.7-0.8-10.1-9.4-8.5
		c-1.6,0.3-3,1-4.8,1.6c-0.5,9.2,1.7,17.6,4.8,25.6c2.2,5.6-0.1,7.9-5.4,10.6c-6.2-10.1-3.5-22.3-9.1-32.6
		c-6.5,1.7-12.8,3.4-18.6,4.9c-0.9,1.1-1.6,1.6-1.6,2.1c-0.5,11.2-7.5,16.1-17.3,19c-10.2,3-19.2,1.5-26.6-6.2
		c-4.5-4.8-8.5-10.1-12.6-15.3c-2.1-2.6-2.6-5.3,1-8c6,2,8.7,7.4,12.4,12c7.4,9.3,18.3,12.1,28.5,7.3c5.2-2.4,7-5.9,5.1-11.3
		c-2.8-8-8.1-13.8-16.3-16.3c-5.4-1.6-11-2.5-16.5-3.7c-7-1.5-13.5-3.5-17.8-9.9c-3.9-5.9-3.8-11,0.8-16.4c7.5-8.8,25-12.9,35.5-8.2
		c6.5,2.9,7.2,5.8,3,13.8c-4.8-5.5-10.6-9.4-18-7.9c-6,1.2-11.3,3.9-14.8,9.8c1.2,5.9,5.7,8.5,11,10c4.2,1.2,8.4,2,12.7,2.8
		c9.5,1.9,17.7,5.9,23.3,14.1c2.5,3.7,5.1,4.3,9.3,2.5C94,76.7,99.8,75.3,106.6,73.2z M144.3,75.7c-7,10.6-8.2,18-4.7,25.1
		c4.7,9.5,16.1,10.5,22.4,2c5.3-7.2,4.5-15.8-3-20.7C154.5,79.2,149,77.7,144.3,75.7z"/>
	<path d="M1293.8,68.8c1-16.3,1.9-31.8,3-47.4c0.1-1,1.5-2,2.5-3.2c6,1,6.3,4.7,5.9,9.5c-1.2,13.6-2.4,27.2-3.1,40.8
		c-0.3,6.2,0.5,12.5,0.9,19.4c7-1.7,6.6-9,12.3-11.9c0.2,2.2,1,4.2,0.4,5.4c-1.8,3.5-3.9,6.9-6.3,10.1c-2.7,3.6-5,7.1-2.6,11.8
		c2.4,4.7,5.7,7.2,11.3,5.4c0.7-0.2,1.7,0.7,2.9,1.2c0,5.4-3.9,6.6-7.8,6.9c-8.8,0.7-13-5.2-15.4-12.4c-9.5,3.2-18.2,6.2-26.9,9.2
		c-1.6,0.5-3.2,0.9-4.8,1.2c-12.9,1.8-17.3-1-21.4-14.7c-6.2,12-18.3,14-28.6,18.7c-2.4,1.1-5.1,1.5-7.8,1.7
		c-10.1,0.9-15.6-5.5-13.1-15.6c2.3-8.8,6.1-16.8,13-23.1c3.2-2.9,6.2-6,9.5-8.9c6.2-5.4,16.9-6.4,23.1-1.5c2.3,1.8,3.7,5.3,4.6,8.3
		c1,3.4,0.8,7.1,1.3,12.1C1260,78.3,1273,65.9,1293.8,68.8z M1293.6,83.5c-6,2.7-8.6-1.1-10.4-6.2c-10.7,2.1-19.5,6.1-25.8,14.5
		c-2.2,2.9-4.3,6-1.8,10c2.5,3.9,6.2,5.3,10.3,4.2c8.6-2.3,17.2-4.9,25.6-7.9c1.8-0.7,3.3-3.9,3.7-6.1
		C1295.6,89.6,1294.3,86.9,1293.6,83.5z M1235.8,80.6c-4.2,1.5-7.8,3.8-11.4,3.9c-13,0.6-21.7,11.7-18.7,24.5
		C1226.6,112.7,1242,98.5,1235.8,80.6z"/>
	<path d="M362.5,75.8c-4.1-0.7-8.4-2.4-12.3-1.9c-10.2,1.2-17.6,13-16.4,25c0.9,9.4,9.2,16.5,19.2,16.6c8.6,0.1,16.1-2.6,24.1-9.1
		c-1.9-11.8,4.8-20.1,12.2-28.6c7-8,13.7-10.6,23.1-6.3c10.2,4.7,16.4,16.6,15,27.9c-2.4,20.3-23.8,27.7-40.3,18.4
		c-2.6-1.4-4.9-3.4-7.6-5.2c-3.6,1.9-7.2,3.7-10.6,5.7c-7.6,4.4-15.7,5.2-24.1,4c-6.4-0.9-11.5-4.2-14.4-9.7
		c-10.3-19.6-0.9-42.5,20.9-48.1c1.3-0.3,2.6-0.2,4-0.2C364.4,64.3,365.9,66.7,362.5,75.8z M398.2,77.9c0.6,6.1-1.2,9.7-6.7,12.2
		c-7.2,3.3-7.9,11.7-2.4,17.4c5.2,5.5,17.7,6.8,24.2,2.6c6.9-4.5,8.6-12.5,4.7-21.2C414.3,81.1,408.2,77.5,398.2,77.9z"/>
	<path d="M189.3,69.3c7.5-7.9,16-9.1,25.8-5.7c3.5,1.2,7.6,0.6,12,0.9c2.7,15.3,8.7,28,28.4,28.3c1.7-10.9,3.2-21,4.8-31.1
		c0.4-2.6,0.5-5.7,2-7.5c1.3-1.6,4.5-1.6,6.8-2.4c0.5,2.1,1.7,4.3,1.3,6.2c-1.2,5.8-2.9,11.6-4.6,17.3c-1.7,5.5-1.2,10.4,0.3,16.2
		c1,3.9-5.1,9.2-5.5,14.1c-0.9,10.5-0.7,21.3,0.3,31.8c0.5,5.5,3.9,10.7,6.7,17.7c-1,2.1-3.3,3.7-7.1-0.2c-3.8-4-6.5-8.4-6.7-14.1
		c-0.5-12.6-1.1-25.1-1.8-38.7c-18.4-0.6-28.9-11.8-32.9-30.1c-3.9-0.7-7.5-1.8-11.1-2c-9.1-0.5-15.3,6.1-13.9,15.1
		c0.7,4.2,2.5,8.2,4,12.3c1.7,4.8,0.7,8.3-5.3,11c-1.9-3.3-4-6.2-5.2-9.5c-2.9-7.7-5.8-15.6-8-23.5c-0.7-2.6,0.5-5.8,1-9.8
		C184.4,67.3,186.4,68.1,189.3,69.3z"/>
	<path d="M456.5,63.1c13.9,6.5,12.2,20,15.5,31.9c4.6-2.1,6.2-6.1,8-9.7c2.3-4.8,4.3-9.8,7.1-14.2c1.2-2,4.1-4.2,6.1-4
		c1.8,0.1,4.2,3,5,5.1c2.4,6.5,4,13.4,6.1,20c1.5,4.8,3.1,9.7,9.3,9.8c0.3,5.1-3.2,6.8-6.2,6.7c-2.4,0-5.7-2.1-6.9-4.2
		c-2.7-4.9-4.4-10.3-6.4-15.6c-0.8-2.1-1.6-4.3-2.6-7.2c-9.8,9.4-11.8,24.3-25.8,32.3c-0.7-5.3-1-8.7-1.5-12
		c-0.9-6.5-1.5-13.1-3-19.6c-0.9-4.2-1.7-4.4-7.8-6.7c-4,8.2-4.1,17.1-4.3,26c-0.1,5.6-0.1,5.6-7.1,10.5c-1-2.5-2.3-4.7-2.6-7
		c-1.4-10.5,0.9-20.6,3.8-30.5C445.1,68.7,450.3,65.4,456.5,63.1z"/>
	<path d="M589.2,72.3c2,0.7,4,1.6,6.1,2.1c10.7,2.7,20.9,6.8,29.3,14.1c3.4,3,6.4,6.7,8.7,10.6c5.3,9.3,2.2,16.7-8.2,18.5
		c-10.4,1.8-20.6,0.4-29.7-5.4c-6.8-4.4-8.3-9.4-5.4-18.3c1.4,1.1,3,1.7,3.6,2.9c4.5,8.9,19.9,15.6,29.6,12.7
		c3.9-1.2,4.9-4.8,1.9-8.8c-5.9-7.6-13.6-12.6-22.9-15c-5.8-1.5-11.6-2.8-17.4-4.2c-4.1-1-7.6-2.8-7.8-7.7c-0.2-4.5,2.2-7.7,6.1-9.4
		c10.7-4.7,21.8-7.9,33.6-8c4.7,0,7.3,2.8,6.6,6.6c-0.8,4.3-4.3,5.4-7.6,4.4C606.1,64.4,597.7,67.1,589.2,72.3z"/>
	<path d="M695.9,101.7c-7,1.6-15,3.4-23.2,5.3c-4.2-5.2-3.5-9.3,2.9-11c5.1-1.3,10.4-1.8,16.4-2.8c-1.6-5.9-3.2-11.4-4.5-17.1
		c-4-17,3.1-29.3,19.6-35c4.2-1.5,9.8-0.2,14.3,1.2c4.9,1.5,5.9,5.7,4.3,10.4c-1,0.2-1.9,0.7-2.2,0.5c-7.9-6-13.1-6.6-19.6-2.4
		c-8.3,5.4-11.3,12.1-9.4,21.2c0.2,1,0.6,1.9,0.8,2.9c4.1,16.8,4.1,16.8,20.7,16.4c7.6-0.2,14.2,1.9,21,8.5
		c-10.6,3.7-20.6-3-29.9,1.5c0.1,8,7.9,15,3,24.6C699.3,121,704.1,108.3,695.9,101.7z"/>
	<path d="M531.6,92c0,3.4-0.7,7.1,0.1,10.4c1.6,6.6,6.4,9.8,13.2,9.5c8.5-0.4,16.3-3,23.3-7.9c2.1-1.5,4.2-2.9,7.8-5.4
		c-0.5,3.3-0.1,5.5-1.1,6.6c-10.2,11.6-23.4,16-38.4,14.8c-6.6-0.6-11.5-5.9-12.5-13.6c-2.3-17.6,2.3-32.9,17-44.1
		c5.2-4,17-2.6,21.1,2.3c4,4.7,2.2,13-4.1,18.5C550.6,89.3,541.2,90,531.6,92z M537.5,80c7.6-0.6,13.9-0.8,16.8-8.4
		C544.8,68.2,543.3,68.9,537.5,80z"/>
	<path d="M852,76.8c-8.4-8.3-16.9-7.3-27.2-1.9c15.3,10.1,21.6,25.7,31.6,40c-3.3,2.8-5.9,6.7-8.6,6.8c-6.5,0.2-13.6-0.1-19.3-2.7
		c-7.9-3.6-8.7-13-2.8-21.2c3.9,3.7-0.3,11.4,6.3,13.3c3.7,1,7.6,1.3,13.4,2.2c-5-11.7-9.7-20.8-19.2-26.7c-2.5-1.6-5.3-2.9-7.5-4.9
		c-4.7-4.2-3.9-11.5,1.6-14.2c8.1-4.1,16.8-6.4,26-5.1C854.2,63.4,856.1,67.4,852,76.8z"/>
	<path d="M891,74.5c9.6,3.8,16.9,6.5,24,9.6c1.4,0.6,2.2,2.8,3.3,4.3c-1.9,0.7-4.2,2.5-5.7,2c-6.3-2.3-12.6-3.9-20.8-2.2
		c2.1,8.5-2,17.9,6.2,25.3c2.5,2.2,1,6.3-2.4,8.2c-3.1,1.8-6,1.2-7.7-1.9c-1-1.9-1.2-4.4-1.5-6.7c-1.1-8.2-2.1-16.4-3.2-25.4
		c-4.2,0.7-7.8,1.3-11.3,2c-3,0.6-5.9,0.1-5.9-3.3c0-2,2-5,3.9-5.8c3.9-1.6,8.3-2.1,12.9-3.1c0-5.6,0-11.2,0-16.7c0-3-0.4-6,0-9
		c0.4-3.4,2.8-5.4,6.3-4.9c3.6,0.5,3.3,3.3,3.1,6.2C891.7,60.8,891.3,68.3,891,74.5z"/>
	<path d="M803.1,86.2c-3.6-2.7-6.5-5.8-10-7.4c-5.6-2.6-11.5-3.2-16.8,1.4c-5.3,4.5-4.3,10.1-3,15.6c0.7,3.2,1.8,6.5,3.5,9.3
		c3.1,5,0.5,7.9-3,11.2c-7.1-4.3-7.8-11.5-9.9-17.9c-2.5-7.4-1.1-13.6,3-20.6c5.2-8.6,12.6-8.9,20.5-9.1c8.6-0.3,14.3,4.4,18.6,11.3
		C807.8,83.1,806.7,84.9,803.1,86.2z"/>
	<path d="M743.8,79.4c0.8,1.2,2.8,2.8,3.2,4.7c0.9,5.2,0.6,10.6,1.7,15.8c1.2,5.8-1.8,12.5,4.5,17.4c2.3,1.7-0.8,9-4,9.9
		c-4.1,1.1-6.2-1.5-6.9-5.1c-0.8-4.2-1.3-8.5-1.9-12.8c-0.9-7.2-1.7-14.4-2.6-21.6C737.3,82.8,739.3,79.4,743.8,79.4z"/>
	<path d="M1177.7,76.5c0.5,2.3,1.6,4.6,1.5,6.9c-0.6,8.4-1.1,16.5,6.3,22.9c2.6,2.3,1.1,7.9-1.9,9.5c-3.9,2.1-7.1,0.3-7.9-3.3
		c-2.2-9.7-4.1-19.5-5.2-29.3c-0.3-2.2,3.1-4.8,4.8-7.3C1176,76.1,1176.9,76.3,1177.7,76.5z"/>
	<path d="M1180.9,56.5c-5.6-0.3-7.1-2.6-7-6c0.2-3.9,2.5-6.2,6.4-6.1c3.7,0.1,5.8,3,5.1,6C1184.8,52.9,1182.1,55,1180.9,56.5z"/>
	<path d="M747.7,56.2c0.7,1.2,2.8,3,3,5.1c0.4,3.4-1,7.4-5.1,7c-2.1-0.2-4.7-3.4-5.6-5.7C739,59.6,742.8,56.1,747.7,56.2z"/>
	<path d="M918.1,116.8c-2.5-8.8-0.7-13.1,4.7-12.8c1.7,0.1,4.1,1.2,4.7,2.6c0.6,1.2-0.3,3.9-1.4,5
		C924,113.5,921.4,114.8,918.1,116.8z"/>
	<path d="M1334.2,107.9c-3.8-6-3.1-9.6,0.4-12.4c1.2-0.9,4-1.1,5.1-0.3c1.1,0.9,2,3.9,1.4,5C1339.5,102.8,1337,104.8,1334.2,107.9z"
		/>
</g>
</svg>
