<?xml version="1.0" encoding="utf-8"?>
<!-- Generator: Adobe Illustrator 20.1.0, SVG Export Plug-In . SVG Version: 6.00 Build 0)  -->
<svg version="1.1" id="Layer_1" xmlns="http://www.w3.org/2000/svg" xmlns:xlink="http://www.w3.org/1999/xlink" x="0px" y="0px"
	 viewBox="0 0 878.9 139.4" style="enable-background:new 0 0 878.9 139.4;" xml:space="preserve">
<g>
	<path d="M611.1,101.3c8.2-2.2,10.5,1.4,10.9,6.7c0.3,4.9,1.1,10.2-0.1,14.8c-0.8,3.4-4,7.2-7.1,8.7c-4.1,2-8.6-0.2-11.5-3.9
		c-2.2-2.8-4.4-6-5.5-9.4c-5.4-17.1-10.5-34.3-11.4-52.5c-0.2-3.5-1.2-7-2.2-12.1c-6.5,7.8-11.8,14.5-17.5,20.9
		c-4,4.4-8,9.1-12.9,12.4c-7.1,4.8-14.8,9.4-25.3,3.2c0.4,8.3,0.6,14.4,0.9,20.6c0.1,2.3,0.5,4.6,0.5,7c0,3.8-0.8,7.4-5.1,8.7
		c-4.5,1.4-9.2,1.2-11.6-3c-2.3-4.2-4.1-9.1-4.4-13.9c-1.2-14.6-1.2-29.3-2.4-43.8c-0.6-7.2-2.7-14.3-4.2-21.4
		c-0.3-1.3-1.1-2.4-1.4-3.7c-1.3-5.2-3.5-11,1.4-15c4.9-4.1,10.9-1.8,16.1,0.4c5.5,2.4,5.1,8.1,6,12.8c1.2,5.8,1.7,11.8,2.8,17.6
		c0.3,1.9,1.2,3.8,2.2,5.5c5.4,9.5,9.5,10.1,17.9,3.1c14.6-12.2,24.9-27.5,32.1-45c2.5-6,6-9.8,10.1-9.4c4.2,0.4,11,7.5,11.5,12.3
		c1.3,12.2,2.3,24.5,3.9,36.7C606.6,73.1,608.8,86.5,611.1,101.3z"/>
	<path d="M382.4,78.2c-8.6,0.4-15.5,0.8-23.6,1.2c-0.5,3.2-1,7-1.7,10.8c-2.1,11.8-7.2,22.1-16.8,29.6c-18.3,14.3-36.5,8.7-48.8-7.3
		c-11.6-15-13.8-32.8-9.7-51.2c1.6-7.1,5.8-9.8,11.3-7.8c4.5,1.7,6.6,5.5,7.1,10c0.2,1.9,0,4.1-0.6,5.9c-2.9,8.7-0.8,17.1,1.5,25.4
		c4.1,14.6,16.1,18.2,27.3,7.9c3.6-3.3,6.5-7.6,8.6-11.9c5.2-10.8,4.4-22.7,4.9-34.3c0.3-5.7-3.6-8-8.6-9.4c-3.7-1-8.9-1.7-7.8-7.1
		c1-5.1,6-4.3,9.9-4.3c11.2-0.3,18.1,4.4,20.9,15.7c1.5,5.8,4.2,7.6,9.7,7.2c4.3-0.3,8.6-0.1,13.3-0.1c0-7.9,0-15.8,0-23.6
		c0-1.3-0.3-2.6-0.4-4c-0.3-7,2.1-10.9,6.9-11.2c5-0.3,10.7,4.8,11.2,10.5c0.6,6.3,0.6,12.6,1,18.9c0.8,10,0.9,10.1,11.3,11
		c5,0.4,9.9,0.6,14.9,0.6c5.8,0,8.5,2,9.5,7.6c0.9,4.9-0.8,8.5-5.9,10c-4.1,1.2-8.5,1.2-12.7,1.5c-3.9,0.2-7.9,0-13.1,0
		c0.7,4,1.4,7.3,2,10.7c1,5.9,2.6,11.7,2.9,17.6c0.3,6.8-5.9,10-11.6,6.2c-3.9-2.7-6.5-6.4-7.4-11.4
		C386.6,95.1,384.5,87.1,382.4,78.2z"/>
	<path d="M82.9,91.2C76.3,93.1,71,94.8,65.6,96c-5.5,1.3-11.1,2.3-16.7,3c-5.3,0.7-8.1,3.2-9.1,8.8c-0.9,5.5-3,10.8-4.7,16.1
		c-2.3,7.1-4.4,8.2-11.6,6.5c-5.5-1.3-9.6-7.6-7.9-13c1.4-4.4,4-8.5,5.1-13c0.7-2.9,0.7-6.6-0.5-9.3c-4.4-9.8-3.5-12.1,7.2-15.4
		c0.6-0.2,1.2-0.6,1.9-0.9c8.9-18.5,18-36.9,31.9-52.5c8.6-9.5,16.8-9.5,22.8,1.9c4.4,8.4,6.6,18,9.6,27.1
		c1.8,5.3,3.2,10.8,4.7,16.2c0.6,2.2,1.4,4.4,1.8,6.7c1.8,8.8,3.4,17.6,5.1,26.3c0.7,3.6,2,7.1,2.6,10.7c0.8,4.2,0.1,8.9-4.3,9.9
		c-3.3,0.7-8.6-0.2-10.7-2.6c-3.1-3.4-4.5-8.6-5.9-13.3C85.4,103.8,84.4,98,82.9,91.2z M78.9,73.7c-1.9-10.2-2.9-19.1-7-28.7
		c-8.8,10.8-15.6,20.8-20.2,34.3C61.4,77.3,69.4,75.7,78.9,73.7z"/>
	<path d="M648.3,96.7c6.1,5.5,11.7,7.3,18.4,6.1c13.4-2.4,26.7-5.2,38.2-13.2c1.5-1.1,4.8-1.3,6.3-0.3c1.4,0.9,2.1,3.7,2.3,5.8
		c0.6,8.1-2.9,13.3-10.4,17.2c-11.2,5.7-22.8,9.2-35.2,9.9c-16.4,1-28.9-6-37.5-20c-1.4-2.3-2.7-4.6-3.8-7
		c-3.1-7.3-6.8-14.3,1.1-21.6c3.4-3.1,4.2-9,6.7-13.2c9.3-15.3,21.8-26.5,40.6-26.3c16.2,0.2,30.7,13.2,19.6,33.8
		c-8.6,15.9-21.3,24.8-39.2,26.6C653.7,94.6,651.9,95.5,648.3,96.7z M649.5,74.2c14.4,1.1,27.4-9.4,28.4-22.6
		C664.1,53.5,655.7,61.4,649.5,74.2z"/>
	<path d="M131.6,73.7c7.3-4.6,12.5-9,18.5-11.3c5-1.9,11.7-3.1,16.3-1.1c16.6,7,29.8,18.4,36.5,35.8c3,7.9,0.9,14.2-6,19.2
		c-13.5,9.6-28.4,12.4-44.3,7.8c-6-1.7-11.8-4.4-17.8-6.5c-2.5-0.9-5.2-2.1-7.6-1.8c-6.7,0.7-10.4-3.3-14.3-7.5
		c-3.3-3.5-3.4-7.3-2.6-11.9c4-21.3,5.4-42.7-1.6-63.8c-1.7-5.2-0.6-9.5,3-11.5c3.8-2.1,9.1-0.8,12.1,3.7c5.5,7.9,7.6,16.9,7.9,26.3
		C131.8,58.3,131.6,65.5,131.6,73.7z M135.8,101.9c4.8,1.6,7.6,2.5,10.3,3.5c10.5,3.9,20.8,3.3,31.2-0.7c8.9-3.4,9.9-7.5,3.3-14.6
		c-2.3-2.4-4.8-4.6-7.3-6.8c-7.9-6.7-13.5-7-21,0.1C146.7,88.7,142.1,94.8,135.8,101.9z"/>
	<path d="M244.3,128.1c-18-0.1-36.6-20.5-37.7-40.2c-0.6-11,4.6-19.9,8.2-29.4c1.6-4.2,5.3-4.3,9.3-3.4c8.4,2.1,16.9,3.6,25.2,5.9
		c5.7,1.6,11.5,3.6,16.6,6.5c11.5,6.5,15.5,18,11.7,30.7c-3.2,10.7-8.9,19.4-18.9,24.5C254.2,125.1,249.1,126.4,244.3,128.1z
		 M224.8,89.7c0.2,7.3,2.5,13.2,9,16.9c5.9,3.4,11.7,2.2,16.8-1.4c6.3-4.4,9.5-10.8,10.3-18.5c0.4-3.9-1.6-6.6-4.9-7.8
		c-5.6-2-11.3-3.7-17.1-4.9c-6.3-1.3-9.4,0.4-11.8,6.1C225.9,83.1,225.5,86.5,224.8,89.7z"/>
	<path d="M850.8,105.5c-0.3-7.1,1.8-10.7,6.1-12.8c4.7-2.2,8.3-0.1,11.3,3.5c2.7,3.2,6.8,5.8,5.6,10.9c-1,4.8-3.1,8.9-8.2,10.4
		c-4.8,1.4-9.5-0.7-12.5-5.9C851.7,109.1,851,106.2,850.8,105.5z"/>
	<path d="M822.7,103.6c-0.2,11.9-6.8,15.7-14.9,11.1c-5.7-3.2-9.1-9.9-7.8-14.9c2.5-9.1,11.8-11.5,18.3-4.3
		C820.8,98.3,821.9,102.2,822.7,103.6z"/>
	<path d="M765.3,109c-0.2,5.1-2.9,7.5-8.4,7.1c-6.1-0.4-12.5-7.4-12.2-13.3c0.2-5.5,3.6-8.6,8.9-8.2
		C760.4,95.1,765.5,101.3,765.3,109z"/>
</g>
</svg>
