<?xml version="1.0" encoding="utf-8"?>
<!-- Generator: Adobe Illustrator 20.1.0, SVG Export Plug-In . SVG Version: 6.00 Build 0)  -->
<svg version="1.1" id="Layer_1" xmlns="http://www.w3.org/2000/svg" xmlns:xlink="http://www.w3.org/1999/xlink" x="0px" y="0px"
	 viewBox="0 0 731.3 122" style="enable-background:new 0 0 731.3 122;" xml:space="preserve">
<style type="text/css">
	.st0{display:none;}
	.st1{display:inline;}
</style>
<g class="st0">
</g>
<g>
	<path d="M665.7,28.5c0.5,4.8-2.1,8.1-5.1,11.5c-3.5,4.1-6.6,8.5-8.9,13.5c-0.7,1.5-1.5,2.9-2.2,4.5c-0.8,1.9-0.5,2.9,1.4,3.6
		c1.5,0.6,3.2,0.9,4.8,0.9c1.8,0,3.4,0.8,5.3,0.6c3.2-0.2,6.2-1.1,9.4-1.4c1-0.1,2-0.7,2.9-1.1c0.7-0.3,1.4-0.9,2.2-1.1
		c2.9-0.6,3.8-1.5,4.1-4.1c0.1-0.8,0-1.7,0.1-2.5c0.1-1.5,0.4-2.9,2.1-3.2c1.5-0.3,4.2,1,4.3,2.4c0.3,3.3,1.8,6.4,1.1,9.8
		c-0.4,1.8-1.3,3.2-3,4.2c-1.1,0.6-2.1,1.5-3.2,2.1c-1.4,0.8-2.9,1.9-4.4,2c-3,0-6,2-9,0.3c-0.2-0.1-0.7,0-1,0.1
		c-4.1,1.8-8.5,1.3-12.8,2.1c-1.4,0.3-3-0.1-4.9-0.3c-2,1.3-1.7,3.3-1.1,5.7c1.2,5.6,5.7,8.5,9.5,11.8c3.1,2.7,6.8,4,10.6,5.3
		c2.6,0.9,5,1.9,7.7,1.8c0.7,0,1.6,0.1,2.1-0.3c2.7-2.4,6.3-4.2,7.9-7.6c1.7-3.5,2.8-7.2,4.2-10.8c0.1-0.2,0.3-0.3,0.5-0.5
		c2.3,0.8,3.6,2.4,3.6,4.4c0,1.8-0.1,3.5-0.3,5.3c-0.2,2-1.3,3.7-2.2,5.4c-1.5,3.1-3.9,5.2-6.4,7.4c-3.9,3.6-8.7,3.7-13.6,3.9
		c-3.6,0.2-6.7-1-9.9-1.9c-2.5-0.7-4.8-2.3-7.2-3.6c-1.4-0.8-2.7-1.8-4.2-2.6c-3.3-1.7-6.4-3.6-8.4-6.8c-0.6-1-1.4-1.9-2-2.9
		c-2.3,1.5-4,2.5-5.6,3.7c-6,4.5-13,6.4-20.2,7.7c-0.2,0-0.5,0.1-0.7,0.1c-4-0.8-8-1.5-12-2.4c-0.7-0.2-1.3-0.9-2-1.3
		c-1.2-0.7-2.4-1.3-3.7-2c-1.7-0.9-3.7-1.6-5.2-2.8c-3.5-2.6-7-5.2-10.1-8.3c-3.8-3.8-6-8.5-7.1-13.9c-1.1-5.8,1.3-10.6,3.5-15.6
		c0.5-1.1,1.6-2,2.5-3c0.9-1,1.9-2,2.6-3.2c0.8-1.2,1.7-2.3,3.3-2.3c1.7,0,2.8-0.8,3.8-2.2c1.6-2.2,3.6-4.1,6.5-4.6
		c0.3-0.1,0.8-0.2,1-0.4c1.9-2.8,5.4-3.2,7.7-5.3c0.3-0.2,0.6-0.6,0.9-0.6c3,0.2,4.9-1.8,7-3.4c2.6-2,5.9-2.3,9-2.9
		c3.5-0.7,5.9,1,7.2,4.3c0.3,0.8,0.6,1.6,0.8,2.4c0.8,2.9,0.4,3.7-2.4,4.9c-2.9,1.3-7.9,1.9-11.4,1.7c-3-0.2-5.9,0-8.6,1.7
		c-1.4,0.9-3.1,1.1-4.5,2c-3.6,2.2-7.3,4.3-10.4,7.1c-2.7,2.4-4.7,5.5-6.7,8.5c-3.1,4.5-2.2,9,0,13.7c1.5,3.3,3.4,6.2,6,8.6
		c1.2,1.2,2.8,2,4.3,2.8c4.2,2.4,8.3,4.8,12.6,7.1c0.8,0.4,1.8,0.4,2.7,0.5c0.8,0.1,1.7-0.1,2.4,0.2c3.9,1.9,7.5,0.6,11.2-0.4
		c4.1-1.2,7.7-3.2,11.6-4.9c2.2-1,2.6-1.7,2-4c-0.4-1.5-1-2.9-1.3-4.4c-0.3-1.5-0.8-3.1-0.5-4.5c0.7-4.3,0.8-8.7,3-12.6
		c1.6-2.9,2.5-6.3,4.2-9.2c1.5-2.6,3.7-4.8,5.6-7.3c0.7-0.9,1.2-1.9,1.7-2.6c-1.2-1.2-2.3-1.9-2.9-2.9c-1.6-2.7-0.5-6.7,2-8.7
		c2.4-2,4.5-4.3,6.7-6.6c1.1-1.2,1.9-2,3.9-1.5c1.4,0.3,3.1-0.5,4.7-0.9c0.9-0.2,1.8-0.9,2.6-0.8c5.1,1,9.8-0.5,14.6-1.7
		c1.6-0.4,3.5,0,5.2-0.1c2.1-0.1,4.2-0.4,6.3-0.6c0.8-0.1,1.6-0.4,2.4-0.3c2.9,0.2,5.5-0.2,8.2-1.6c3.2-1.7,5.6-0.7,7,1.9
		c0.7,1.4,0.7,2.7-0.6,3.8c-3.3,2.8-6.9,4.5-11.5,3.9c-2.5-0.3-5.1,0.4-7.7,0.7c-0.8,0.1-1.6,0.6-2.4,0.5c-4.4-0.9-8.7-0.3-12.8,1.6
		c-0.8,0.4-1.9,0.2-2.8,0.3C670.6,26.6,668.1,26.7,665.7,28.5z"/>
	<path d="M302.7,69.6c0-4.7,0.1-8.9,0-13.2c-0.1-2.6-0.7-3.2-3.3-3.7c-4.3-0.8-5.9-3.5-4.7-7.8c0.2-0.8,0.5-1.6,0.8-2.3
		c0.4-1,0.5-2.4,1.3-3c1.3-1.1,3.1-2.2,4.6-2.2c2.2-0.1,3.2-1.1,4.2-2.6c2.1-3.4,3.3-3.5,5.9-0.4c0.4,0.5,0.7,1,1.1,1.5
		c3.9-0.8,7.6-1.6,11.3-2.3c3.5-0.6,7-1,10.4-1.5c5.1-0.8,10.3-0.4,15.4-0.4c2.9,0,5.9,0,8.8,0c5.5,0.1,11,0.9,15.1,5
		c6.5,6.3,5.6,13.2-0.4,19.2c-2.8,2.8-6.1,4.8-9.9,6.1c-3.1,1.1-6,2.7-9.1,3.9c-1.4,0.5-3,0.5-4.4,1c-3.9,1.2-7.8,2.6-11.7,3.9
		c-0.6,0.2-1.2,0.6-1.7,0.5c-3.8-0.6-6.6,2.2-10.2,2.5c-0.3,0-0.5,0.5-0.8,0.8c0.4,1.4,1.2,1.9,2.6,1.6c1-0.2,2.3-0.4,3,0
		c2.1,1.3,4.5,1.4,6.8,1.8c1.4,0.3,2.7,0.8,4,1.2c1.1,0.3,2.2,0.7,3.3,1c1.3,0.3,2.8-0.2,3.9,1.2c0.3,0.4,1.3,0.2,2,0.2
		c0.5,0,1.2-0.2,1.3,0c1.3,2,3.7,1.1,5.4,2c1.4,0.7,2.7,1.4,4,2.1c3.2,1.7,5.3,5.1,9.6,5.1c-0.4,1.1-0.4,1.9-0.8,2.1
		c-2.9,1.7-5.7,3.9-9.4,3.2c-0.8-0.2-1.7,0.1-2.4-0.1c-1.1-0.3-2.4-0.6-3.1-1.4c-2.2-2.4-4.8-3.7-7.9-4.1c-1.4-0.2-2.7-0.8-4.1-1.2
		c-6.6-1.6-13.1-3.3-19.7-4.9c-1.3-0.3-2.6-0.2-3.9-0.4c-1.3-0.2-2.5-0.4-3.7-0.9c-2.3-0.8-3.2-0.4-3.2,2c0,3.4,0.1,6.8,0.1,10.2
		c0,2.5-0.1,5-0.3,7.4c-0.2,1.7-1.2,2.7-3.1,2.8c-5.7,0.5-6.9-0.8-6.6-6.6c0.1-3-0.3-6.1-0.3-9.2c0-1.2,0-2.4,0.2-3.5
		c0.4-2.2-0.1-4-1.7-5.5c-0.1-0.1-0.2-0.2-0.3-0.3C297.3,76.3,297.8,72.8,302.7,69.6z M367.3,45.6c-0.7-1.5-1.2-3.4-3.1-4.6
		c-4.1-2.7-8.5-3.6-13.4-3.1c-1.1,0.1-2.1,0.2-3.2,0c-3.5-0.6-6.8-0.2-10.2,0.6c-3.8,0.9-7.6,1.6-11.3,2.6c-3.6,1-7.4,1.6-10.5,3.9
		c-0.8,0.6-1.8,1.4-1.9,2.2c-0.4,6.2-0.6,12.5-0.8,18.8c-0.1,3.3,1.7,4.3,4.8,2.9c0.9-0.4,2-0.9,3-1c3.9-0.3,7.5-1.6,11.3-2.6
		c4-1,7.9-1.8,11.6-3.7c1.3-0.7,2.9-0.7,4.4-1.3c2.5-0.9,4.6-2.9,7.6-2.6c0.3,0,0.7-0.2,0.9-0.4C360.6,54,365.6,51.5,367.3,45.6z"/>
	<path d="M564.8,88.1c-2,1.1-3.7,2.2-5.6,3c-3.6,1.6-5.2,0.8-7.2-2.5c-1.2-2-2.7-3.9-4.3-5.5c-3.5-3.5-7.8-5.9-12.1-8.2
		c-1.6-0.8-2.7-2.5-4.1-3.8c-2.4-2.3-5.2-4.2-7.1-6.8c-2.6-3.8-7.3-5.7-9.2-10.2c-0.2-0.4-0.6-0.7-1-1c-1.9-1.4-3.8-2.8-5.7-4.1
		c-0.6-0.4-1.3-0.5-2.5-0.9c1.1,4.5,1.7,8.6,3.8,12.1c0.2,0.3,0.3,0.7,0.4,1c1,5.2,2,10.4,3.1,15.6c0.2,1.1,0.6,2.3,0.8,3.4
		c0.2,1.4,0.4,2.8,0.4,4.2c0,0.5-0.2,1.4-0.5,1.6c-2.2,1.1-4.4,2.4-6.8,2.8c-1.6,0.3-3.5-0.5-5.1-1.1c-0.5-0.2-1.2-1.2-1.1-1.6
		c1-3.7-0.9-6.8-2.4-9.7c-2.8-5.3-4.1-11-5.9-16.7c-1.1-3.7-1.5-7.5-3.5-11c-1.8-3.2-2.2-7.1-3-10.8c-0.2-0.8,0.4-2.1,1.1-2.8
		c3.3-3.5,11-4.9,15.5-2.9c0.1,0,0.3,0.1,0.3,0.1c1.7,2.5,4.2,3.5,7.2,3.7c0.4,0,0.7,1.2,1.3,1.5c3.8,2.3,5.9,6.3,9,9.2
		c3.9,3.7,6,8.7,10.2,12.1c2.2,1.8,4.5,3.6,6,5.9c2.3,3.4,5.2,5.8,8.9,7.6c1.7,0.9,2.9,2.7,4.5,3.9c0.6,0.5,1.7,0.8,2.5,0.7
		c0.3,0,0.7-1.4,0.7-2.1c-0.5-3.6,0.4-7.4-1.6-10.7c-0.2-0.3-0.2-0.7-0.2-1c-0.3-6.6-3.9-12.2-5.7-18.4c-0.4-1.4-1.3-2.7-2.1-4.1
		c-1.3-2.3-0.1-4.4,0.3-6.5c0.1-0.7,1.3-1.3,2.1-1.7c2.9-1.4,5.9,0.6,6.6,3.7c0.6,3,1,6.1,2.1,9.1c1.6,4.2,2.6,8.5,3.9,12.8
		c0.8,2.9,1.7,5.9,2.4,8.8c1.2,4.7,2.4,9.4,3.4,14.1C564.8,83.1,564.7,85.5,564.8,88.1z"/>
	<path d="M27.3,43.2c0.1-2.6,0.2-4.6,0.3-6.5c0-0.6,0-1.4,0.3-1.7c1.6-1.3,3.3-2.5,5.2-3.5c0.7-0.4,1.8,0,2.7,0.2
		c1.7,0.5,3.2,0.5,4.8-0.4c0.7-0.4,1.9-0.7,2.6-0.5c1.4,0.5,2.3-0.1,3.3-0.7c1.9-1,3.6-2.1,6-1.5c0.8,0.2,2-0.6,3-1
		c1.5-0.6,3-1.2,4.6-1.7c3.6-1.2,7.1-2.4,10.7-3.3c4.3-1,8.7-1.8,13.2-2.4c2.4-0.3,4.3,3,3.6,5.7c-0.7,2.7-3.1,4.2-6,4.4
		c-4,0.3-7.9,0.9-11.8,1.6c-2.3,0.4-4.6,1.1-6.8,1.8c-4,1.3-8,2.6-12.1,3.9c-2.7,0.8-4.4,2.3-5,5.3c-0.3,1.6-1.6,3.1-2.3,4.7
		c-1.6,3.6-4.5,6.7-4.4,10.9c0,0.4,0.2,0.9,0.2,1.2c2.6,0.4,4.9,0.9,7.3,1.2c0.2,0,0.5,0,0.7-0.1c3-2.8,7.9-1.5,10.7-5
		c0.8-1,2.1-1.4,3.5-1.1c1.4,0.2,2.8-0.1,4.3,0c3.6,0.2,4.8,2.3,3.2,5.4c-1.7,3.1-4.1,4.9-7.8,5.4c-6.7,0.8-13.1,3.1-19.3,5.7
		c-3,1.2-5.6,3.4-8.3,5.3c-0.8,0.6-1.4,1.7-1.5,2.6c-0.6,3.8,0,7.6,1.2,11.2c1.2,3.4,4.7,4.5,7.9,5.5c3.1,1,6.3,1.6,9.5,2.3
		c0.8,0.2,1.7,0.3,2.5,0.2c4.6-0.6,9.2-0.7,13.6-1.9c2.8-0.8,6.2-0.4,8.4-3.1c0.3-0.4,1.1-0.3,1.6-0.5c3.6-1,7.2-2.1,10.7-3.2
		c0.6-0.2,1.1-0.9,1.6-1.3c1.6-1.2,3.4-1.2,4.8,0.1c1.1,1,1.1,2.1-0.3,4.1c-0.2,0.3-0.5,0.5-0.6,0.9C92,97,88.9,98,85.8,98.9
		c-5.3,1.6-10.6,3.1-15.9,4.5c-2,0.6-4.1,0.9-6.2,1.4c-1.5,0.4-2.8,1.1-4.3,1.3c-1.5,0.2-3,0.1-4.5,0.1c-1.4,0-2.8-0.1-4.2-0.1
		c-5.7,0.1-11.3,0.1-16.2-3.7c-2-1.6-4.3-2.8-6.5-4.1c-3.8-2.3-4.4-6.3-5-10.1c-0.3-2-0.2-4.2,1.2-6.1c0.4-0.5,0.6-1.3,0.6-2
		c0.1-4.4,1.3-8.5,2.4-12.7c0.7-2.8,0.9-5.5,1.3-8.3c0.4-3.2,1-6.5,3.5-9.1c1.6-1.7,1.2-3.7-0.9-4.9C29.8,44.3,28.4,43.7,27.3,43.2z
		"/>
	<path d="M443.4,28.6c3.1-1.3,6.1-1,9.2-1.2c2.3-0.2,5-0.3,6.8-2.2c1.1-1.1,2.2-1.1,3.5-0.5c1,0.5,2.4,0.8,3.4,0.5
		c2.6-0.8,4.9,0.3,7.4,0.5c2.1,0.2,3.2,1.4,3.1,3.8c-2.3,1.4-4.8,2-7.5,2.2c-6.2,0.3-12.1,1.8-18,3.7c0,0.7-0.2,1.2,0,1.6
		c1.9,3.7-0.1,6.6-2.1,9.4c-2.6,3.6-5.5,7-7.8,10.8c-1.6,2.7-2.4,5.8-3.9,9.4c2.3,0.7,3.8,1.2,5.4,1.5c2,0.3,4,0.7,5.9,0.6
		c1.4-0.1,3-0.8,4.1-1.7c1.4-1.1,2.7-1.7,4.5-1.7c1.1,0,2.1-0.6,3.2-0.9c0.8-0.2,1.5-0.5,2.3-0.7c1.2-0.4,2.6-0.5,3.7-1.1
		c2.4-1.2,3.9-3.1,3.7-5.9c-0.1-0.9-0.3-2,0-2.8c0.4-0.9,1.2-1.7,2.1-2.1c0.9-0.4,1.7,0.1,2.3,1.1c0.7,1.2,1.9,2.1,2.6,3.3
		c1.4,2.7,0.5,7-1.9,9.1c-3.2,2.9-5.9,6.6-10.6,7.3c-2.1,2.6-5.2,2.2-8.1,2.6c-1,0.1-2,0.6-3.1,0.8c-1.5,0.3-2.9,0.5-4.4,0.6
		c-4.2,0.3-8.4,0.6-12.5,0.8c-1.2,8.8,0,12.6,7.7,18.5c2.6,2,5.4,2,8.4,1.6c0.9-0.1,2-0.5,2.8-0.1c3.3,1.4,5.4-0.6,7.5-2.5
		c1.4-1.2,2.9-2.4,4.2-3.7c1.2-1.2,2.2-2.6,3.4-4c2,1.1,1.9,2.5,1.3,4.1c-2.1,5.1-6.2,9.9-10.7,12.8c-7.5,4.7-17.3,4-24.6-1.3
		c-3.8-2.8-7-6.1-9-10.2c-1.6-3.1-2.9-6.5-2.6-10.2c0.3-3.9,0.1-7.7-0.4-11.6c-0.3-2.4,0.7-4.7,2.4-6.5c1.4-1.5,2.4-3,2.9-5.1
		c0.4-1.7,1-3.6,2.8-4.8c0.6-0.4,0.8-1.4,1.1-2.1c0.7-1.2,1.1-2.7,2.1-3.6c2.9-2.8,3.2-6.1,2.9-10.1"/>
	<path d="M148.7,44.2c-0.9,0.5-1.6,1.1-2.5,1.4c-1.4,0.6-2.8,1.2-4.2,1.6c-0.4,0.1-1,0-1.3-0.3c-3.2-1.9-3.3-7.9,0-9.7
		c3.3-1.8,6.7-3.4,10-5.1c0.2-0.1,0.5-0.1,0.6-0.3c1.9-2.9,5.1-2.5,7.9-3.2c2.5-0.7,5.1-1.3,7.3-2.5c3.4-1.9,7.1-1.1,10.7-1.7
		c5.2-1,10.5,1,15.8-0.2c0.6-0.1,1.5,0.2,1.9,0.7c1.2,1.6,2.9,1.2,4.4,1.6c3.7,0.9,7.5,1.8,10,5.2c0.5,0.7,1.3,1.7,2.1,1.8
		c1.9,0.4,2.5,1.7,3.5,3.2c1.3,2,1.3,3.8,0.5,6c-1.7,4.6-4.4,8.2-8.7,10.8c-2.7,1.6-5.3,3.5-7.9,5.2c-1.2,0.7-2.5,1.3-3.8,1.9
		c-3.9,1.7-7.8,3.5-11.6,5.2c-0.8,0.4-1.7,0.7-2.6,0.9c-4.1,0.9-8.2,2-11.8,4.2c-2.1,1.2-2.5,2.1-2.2,4.3c0.5,3.5,1,7,1.5,10.5
		c0.4,2.2,0.9,4.3,2.3,6.2c2.2,3.1,0.6,7.4-2.9,8.9c-0.5,0.2-1.2,0.1-1.7,0.3c-5.2,2.1-6.3,0.4-6.8-5.8c-0.3-3.2,0-6.7-1.1-9.6
		c-0.8-2.3-1.6-4.6-1.8-7.1c-0.1-1.3-0.2-2.6-0.2-3.9c0.1-4.1-0.7-8-2-11.8c-0.4-1.2-0.8-2.5-0.7-3.7
		C153.6,53.7,152.7,48.7,148.7,44.2z M164.8,65.2c1.8-0.5,2.9-0.7,3.8-1.1c1-0.5,1.9-1.3,2.9-1.8c0.6-0.3,1.4-0.5,2-0.4
		c2.1,0.4,3.9-0.5,5.7-1.4c3.2-1.7,6.4-3.4,9.7-4.8c2.1-0.8,4.4-1,5.2-3.7c0.1-0.4,0.9-0.7,1.4-0.9c3.4-1.2,6.1-3.4,8.7-5.9
		c1.5-1.5,2-3.3,0.5-4.6c-2.2-1.9-4.6-3.8-7.2-4.9c-3.3-1.4-7-1.9-10.5-2.8c-0.6-0.1-1.2-0.2-1.8-0.1c-3.1,0.5-6.4,0.2-9.4,0.6
		c-4.9,0.6-9.6,2.2-14.4,3.5c-1.4,0.4-1.9,2-0.7,2.7c1.5,1,1.5,2.4,1.7,3.7c0.6,4,0.9,8.1,1.3,12.2
		C164.1,58.6,164.4,61.7,164.8,65.2z"/>
	<path d="M248.4,89.5c2-0.1,4-0.1,5.9-0.5c1-0.2,2.1-1.1,2.8-1.9c1.2-1.4,2.5-2.5,4.4-2.5c1.2,0,1.9,0.6,1.9,2
		c-0.1,4.8-2.7,8.4-6.4,10.8c-2.2,1.4-5.5,1.6-8.2,1.5c-2.8-0.1-5.5-1-8.2-1.7c-1.4-0.3-2.7-0.9-4-1.3c-5.1-1.8-9.4-4.9-12.9-9.1
		c-0.9-1.1-1.5-2.4-2-3.7c-0.5-1.3-0.8-2.8-1.3-4c-3-6.7-1.5-13.3,0.3-19.9c0.8-2.8,2.1-5.2,3.5-7.7c1.3-2.4,1.9-4.9,1-7.8
		c-1.1-3.4,0.3-6,3.4-7.5c0.6-0.3,1.6-0.4,1.9-0.9c1.6-3.1,4.3-3.5,7.4-3.9c1.6-0.2,3-0.4,4.5,0.3c1.4,0.7,2.7,0.8,4-0.2
		c0.5-0.3,1.1-0.7,1.6-0.6c3.3,0.7,6.1-1.3,9.2-1.9c2.7-0.5,5.4-0.7,7.9-1.7c3.7-1.5,7.5-2.1,11.3-1.3c4.4,0.9,9,1.4,12.5,4.9
		c0.4,0.4,0.9,0.8,1.2,1.2c0.9,1.4,0.4,2.9-1.2,3.3c-1,0.2-2.1,0.2-3.2,0.1c-3.1-0.5-6.2-1.6-9.3-1.5c-4.3,0-8.8-0.9-12.7,1.8
		c-0.3,0.2-0.7,0.4-1,0.4c-3.3-1.2-5.9,1-8.9,1.6c-2.6,0.5-5,2-7.4,3.1c-0.5,0.2-1.1,0.6-1.6,0.7c-4.4,0.5-6.6,3.6-8.6,7.1
		c-0.9,1.5-1.8,3.1-2.8,4.5c-2.1,3-3,6.4-3.8,9.8c-0.6,2.4-0.1,2.3,2.5,2.9c4.9,1.2,9.7,0.9,14.2-0.9c4.1-1.6,8.9-1.8,12-5.5
		c1.3-1.6,2.6-3.2,3.8-5c1.2-1.7,3.3-1.8,4.2,0c0.5,0.9,0.9,2.3,0.6,3c-2,4.5-3.3,9.7-8.8,11.7c-0.7,0.3-1.4,0.9-2,1.5
		c-2.8,3.1-6.3,4.3-10.5,4c-0.4,0-0.8-0.2-1,0c-3,2.2-6.6,1.1-9.9,1.7c-1.3,0.2-2.5,0.8-2.6,2c-0.1,0.8,0.6,1.9,1.2,2.6
		c2.5,3,5.4,5.5,9,7.2C244.4,88.7,246.1,89.9,248.4,89.5z"/>
	<path d="M116.4,67.7c-0.9,1.5-1.7,2.5-2.2,3.7c-1.5,3.5-3.1,6.9-4.3,10.5c-0.6,1.9-1,4-0.8,5.9c0.2,3.1-1.8,5.3-2.8,7.9
		c-0.2,0.6-1.9,1.3-2.7,1.1c-1.2-0.4-2.9-1.4-3.2-2.4c-0.8-3.1-1.8-6.4,0.4-9.5c0.9-1.2,1.1-2.8,1.5-4.3c0.8-3.7,1-7.5,4-10.4
		c0.8-0.7,0.9-2.2,1.2-3.3c0.4-1.1,0.4-2.4,1.1-3.4c1.3-1.9,0.8-3.3-0.5-4.8c-1.4-1.7-2.7-3.6-4.2-5.2c-2.2-2.4-4.8-4-8-3.9
		c-2.1-4.1-1.3-7.6,1.3-10.7c1.3-1.6,2.6-3,5-2.1c0.9,0.3,2-0.2,2.8-0.3c1.7,1.7,3.4,3.3,5,4.9c0.2,0.2,0.3,0.4,0.4,0.6
		c0.7,4.3,4.4,5.4,7.9,7.5c1-3.7,3.6-6.6,3.1-10.5c-0.1-1.3,0.4-2.1,1.5-2.5c1.7-0.6,3.5-1.1,5.3-1.6c0.7-0.2,1.4-0.2,2.1-0.3
		c2.7-0.7,3.1-0.5,3.8,2c1.2,4.4,0.4,6.1-3.6,8.9c-1.9,1.3-3.4,3.3-5,5c-0.6,0.6-0.9,1.4-1.4,2c-2.4,2.7-1.8,5.1,0.2,7.9
		c2.3,3,5.3,5.5,6.9,9.1c0.4,0.8,1.2,1.4,1.7,2.2c2,3.1,4.2,6.2,5.9,9.5c0.8,1.7,1.1,3.7,1.7,5.6c1,3.3,3.1,5.1,6,6.4
		c0.3,0.1,0.8,0.1,1,0.4c0.4,0.7,1,1.4,0.9,2.1c-0.1,0.6-0.9,1.5-1.5,1.6c-2.3,0.4-4.7,0.7-7,0.7c-1,0-2.2-0.5-2.8-1.3
		c-4.4-5.3-9.2-10.5-12.2-16.9c-0.6-1.4-1.5-2.6-2.5-3.9C120.7,73.3,118.7,70.8,116.4,67.7z"/>
	<path d="M389.1,35.2c1.9-0.9,3.3,0.3,4.5,2c0.5,0.7,1.2,1.2,1.5,2c1.7,4.3,4.6,8.1,5.7,12.8c1.3,5.4,3,10.6,4.5,15.9
		c0.2,0.7,0.3,1.4,0.3,2.1c0.2,4.7,1.3,9.3,2.6,13.8c0.5,1.7,1.3,3.3,1.8,5c1.1,3.8,0,5.1-3.8,4.9c-3.6-0.2-5.2-1.7-6.5-5.9
		c-1.3-4-2.5-8.1-3.6-12.1c-0.3-1.2,0-2.6-0.4-3.8c-1.3-4-2.9-7.8-4.2-11.8c-1.1-3.2-2-6.5-3-9.7c-0.3-0.9-0.5-2-1.2-2.5
		c-2-1.5-2.6-3.8-3.6-5.9c-2-4.2-0.6-6.5,4.2-6.6C388.1,35.2,388.4,35.2,389.1,35.2z"/>
</g>
</svg>
