<?xml version="1.0" encoding="utf-8"?>
<!-- Generator: Adobe Illustrator 20.1.0, SVG Export Plug-In . SVG Version: 6.00 Build 0)  -->
<svg version="1.1" id="Layer_1" xmlns="http://www.w3.org/2000/svg" xmlns:xlink="http://www.w3.org/1999/xlink" x="0px" y="0px"
	 viewBox="0 0 468.3 172" style="enable-background:new 0 0 468.3 172;" xml:space="preserve">
<g>
	<path d="M43.1,85.6c27.5-2.2,52.6-15.9,79.1-8.1c8.3-7.6,16.4-14.9,24.4-22.3c1-0.9,1.8-2.2,3-2.6c16.6-5.4,33.2-10,49.5,1
		c3.3,2.2,6.8,4.2,9.9,6.7c8.6,7,14.2,15.5,14.4,27.2c0.2,17.9-6.3,32.5-20.9,43c-19.3,13.9-40.6,21.1-64.7,17.5
		c-12.2-1.8-22-7.5-26.7-19.7c-2.7-7.1-2.4-14.4-0.6-21.6c1.2-4.4,2.5-8.8,3.8-13.3c-11.8-1.6-56,6.9-72.3,13.8c0,8.5,0,17.5,0,26.4
		c0,8.5,4.8,16.7,1.8,25.4c-10,0.7-13-1-14-9.7c-1.2-9.6-1.3-19.2-1.8-28.9c-0.2-3.6,0-7.3,0-10.7c-5.3-3.5-14.8-1-14.1-11.3
		c0.5-6.8,1.7-7.8,14.6-10c2.7-12.9,1.6-26,1.7-39.6c-3.7,0-6.8,0.1-10,0c-4.7-0.1-7.4-2.8-7.9-7.3c-0.6-5,2.4-9.2,7.1-10.3
		c21.1-4.7,42.2-9.5,63.3-14c3.8-0.8,7.9-1.1,11.9-0.9c11.6,0.6,16.1,7.3,12.6,19.7c-22.3-5.3-42.7,4-64,8.2
		C43.1,58.1,43.1,71.3,43.1,85.6z M149,133.2c14-0.7,26.1-6.1,38-12.3c7.7-4,13.3-10,17.7-17.2c5.1-8.1,4.8-16.7-0.3-24.5
		c-4.8-7.4-11.9-12.8-20.7-14.8c-8.9-2-18.4-5.1-25.2,4.9c-0.8,1.2-2.8,1.7-4.2,2.6c-15.2,9.9-24.5,24.2-29.6,41.2
		c-2.3,7.8,0.4,13,8,16C137.8,131.2,143.5,131.9,149,133.2z"/>
	<path d="M425.9,76.6c-13.4,7-25.5,14.5-38.6,20c-18.1,7.5-38.4-0.6-49-16.2c-8.2-12.2-4.4-35,8.2-46.4
		c17.5-15.9,51.4-24.4,75.2-9.2c2.5,1.6,5.1,3.2,7.2,5.2c2.6,2.6,5,4.4,9.1,4.9c7.3,0.9,11.9,8.3,9.8,15.8
		c-6.9,24.4-4.3,48.9-1.5,73.4c0.8,7.5,4,14.7,5.7,22.1c1,4.1,1.9,8.5,1.5,12.6c-0.5,5-3.9,6.4-8.8,4.9c-6.2-1.8-9.3-6.6-10.5-12.3
		c-2.4-12.1-4.8-24.2-6.1-36.4C426.8,102.3,426.6,89.3,425.9,76.6z M396.8,34.5c-18.1,0.8-31.3,4.1-41.4,15.4
		c-4.7,5.3-7.6,11.4-4.7,18.2c3,7.2,8.9,12,17,12c6.2,0,12.7-1,18.5-3c11.8-4,22-11,31.3-19.1c7.3-6.4,6.5-13.6-2.5-17.6
		C408.2,37.3,400.7,35.7,396.8,34.5z"/>
	<path d="M217.4,158.6c-4.9-3.6-10.7-5.6-8.8-12.5c0.8-2.9,2.7-5.9,4.9-8c15.5-15,31.2-29.8,46.8-44.7c0.4-0.4,0.6-1.2,1.4-3.2
		c-7.5-10.7-15.5-22-23.3-33.5c-1.8-2.6-3.4-5.7-3.9-8.7c-0.6-4.1,0.7-8,5.6-9.3c4.4-1.2,7.5,0.4,10,4.3
		c6.6,10.3,13.6,20.5,20.5,30.7c1.1,1.6,2.4,3.1,4.3,5.5c9.4-8,19.2-14.8,26.8-24c2-2.5,3.4-5,7.1-3.9c3.8,1.2,7.7,6.4,6.6,10
		c-1,3.4-2.7,6.9-5,9.4c-5.2,5.5-11.1,10.5-16.8,15.6c-2.7,2.4-5.4,4.7-8.7,7.5c3.3,5.1,5.9,10.1,9.4,14.4
		c9.4,12,19.1,23.9,28.9,35.6c1.6,1.9,4.3,2.9,6.5,4.3c5.1,3.1,6.2,6.9,3.5,12.7c-2.1,4.4-5.8,6.5-10.7,4c-4.9-2.5-9.7-6-13.3-10.2
		c-10.9-13-21.1-26.5-31.6-39.8c-1.6-2-3.2-4.1-5.5-7C253.4,124.8,236.8,143.3,217.4,158.6z"/>
</g>
</svg>
