<?xml version="1.0" encoding="utf-8"?>
<!-- Generator: Adobe Illustrator 20.1.0, SVG Export Plug-In . SVG Version: 6.00 Build 0)  -->
<svg version="1.1" id="Layer_1" xmlns="http://www.w3.org/2000/svg" xmlns:xlink="http://www.w3.org/1999/xlink" x="0px" y="0px"
	 viewBox="0 0 1226 196" style="enable-background:new 0 0 1226 196;" xml:space="preserve">
<g>
	<path d="M375.1,76.2c2.7,11,31.1,54,42.8,65.6c0-2.9,0-5.1,0-7.3c-0.1-18,6.8-33,19.3-45.6c9.7-9.8,23-6.9,31.8-0.3
		c0.8,0.6,2,1.4,2,2.1c-0.5,8.1,5,13,9.2,18.7c1.2,1.6,1.4,4.5,1.1,6.7c-1.8,14.1,3.5,26.1,10.8,37.5c1.8,2.9,4.9,5.4,8,7
		c6,3.1,7.7,5.8,5.2,10.3c-3,5.5-9.8,8-14.3,4.2c-4.7-4-8.8-9-12.4-14.1c-3.4-4.8-5.7-10.3-9-16.4c-1.9,2.4-3.1,4.3-4.6,5.8
		c-3.8,3.7-7.4,7.8-11.7,10.7c-8.5,5.7-17.5,8.9-26-0.2c-0.7,0.9-1.4,1.4-1.4,1.9c-0.5,17.7-8.4,19.8-21.2,19.8
		c-19.3,0-36.5-6.2-50.9-19.7c-5.1-4.8-10.9-8.7-16.3-13.1c-2.3-1.9-4.7-4-6.2-6.5c-0.9-1.6-0.2-4.1-0.2-6.2c1.8,0,4.1-0.6,5.4,0.2
		c8.2,5,16.1,10.6,24.3,15.7c9.7,6,19.8,10.9,31.2,12.6c2.6,0.4,5.3,0.7,8,0.6c8.4-0.3,10.8-4.1,7.1-11.7c-2.2-4.5-4.7-8.8-7.5-12.9
		c-11.7-17-23.5-33.8-35.3-50.7c-1.3-1.9-3.2-3.7-3.7-5.9c-2-9.1-8.4-10.8-16.4-11c-6.3-0.2-12.6-1-18.9-1.9
		c-5.7-0.8-9.6-5.4-9-10.9c0.2-1.7,2.3-4,4-4.5c2.4-0.8,5.3-0.2,7.9,0c19.9,1.1,39.8,2.3,59.8,3.5c4.6,0.3,9.3,0.4,13.9,1.2
		c2.9,0.5,5.7,1.8,8.3,3.2c3.9,2.2,5.7,5.7,4.2,10.1c-1.5,4.6-5.6,4.3-9.2,4c-7.6-0.7-15.2-1.7-22.8-2.4
		C380.5,76.1,378.3,76.2,375.1,76.2z M438.3,148.2c14.9-4.6,28.3-25.8,25.7-40.1c-1.2-6.5-7.8-9.1-13.8-5.5
		C436.7,110.6,430.8,132.7,438.3,148.2z"/>
	<path d="M605.5,158c0.6,2.9,1.2,5,1.5,7.2c0.8,7.7-2.1,13-9.5,15.5c-5,1.7-10.3,3-15.5,3.2c-14.4,0.8-28.5-0.5-42.5-4.5
		c-15.8-4.5-21.7-17.8-23-31.6c-0.2-1.6,0-3.5,0.7-4.8c0.7-1.2,2.3-2.4,3.7-2.7c0.8-0.2,1.9,1.4,2.9,2.2c0.2,0.2,0.3,0.6,0.4,0.9
		c3.8,14.9,15.1,19.9,28.7,22.3c10.2,1.8,20.4,3.1,30.6,0.3c2.4-0.6,4.7-1.9,7.5-3.1c-2.7-7.6-8.3-11.8-13.6-16.3
		c-17-14.5-36.3-24.6-58.6-28.2c-9.2-1.4-15.2-6.1-16.7-15.8c-0.9-5.4,0.8-9.2,5.8-11.3c17.2-7.2,34.6-13.9,53.8-13.3
		c3.6,0.1,7.3,0.7,10.8,1.7c3.5,1,7.5,2.5,6.9,7.2c-0.7,4.7-4.2,6.1-8.8,6.1c-6.3,0-12.6,0.2-18.9,1c-8.9,1.1-16.9,4.9-25.3,8.7
		c30.6,8.8,55.2,25.9,76.4,49c-0.7-2.4-1.5-4.8-2.2-7.3c-4.9-18.1-0.6-34.2,10.9-48.6c3.2-4,7-5.7,12.3-3.6
		c7.7,3.1,15.6,5.8,23.3,8.7c8.4,3.2,14.3,9.8,19.7,16.4c14.7,17.9,11.8,47.8-20.4,54.9C631.1,175.8,620.3,172.1,605.5,158z
		 M625.1,109c-10.2,8.8-12,19.2-9.6,31.2c1.6,7.9,5.2,13,16.3,15c7.4,1.3,14.6-0.4,20.9-4.7c7.5-5.1,8.9-11.7,4.7-19.8
		C650.6,117.7,638.9,112.3,625.1,109z"/>
	<path d="M82.4,89c2.6,23.3-1.7,45.7,5.7,67.4c0.5,1.6,1.5,3.6,0.9,4.8c-1.2,2.5-2.8,5.3-5.1,6.7c-1.2,0.8-5-0.2-6-1.6
		c-2.8-3.9-6.2-8.2-6.9-12.7c-1.5-9.8-1.8-19.8-2.1-29.8c-0.3-9.3-0.1-18.5-0.1-29.3c-4.9,1.3-8.2,2.5-11.6,3.1
		c-9.8,1.7-19.6,3.6-29.5,4.4c-9.2,0.7-11.3-1.4-16-13c3.4-0.4,6.6-1.4,9.5-0.9c15.5,2.6,29.5-2.8,43.7-7.8c4-1.4,5.3-4.4,6.1-8.2
		c0.9-4.1,4.1-5.6,7.4-2.3c3.7,3.7,7.3,3.5,11.7,2.1c3.4-1.1,7.2-1,10.8-1.7c1.9-0.3,4.7-0.5,5.4-1.7c3.1-5.4,7.2-5,12-3
		c4.8,2,7.2,5.8,7.6,10.8c0.8,8.6,1.4,17.2,2.2,25.8c0.7,8.8,1.5,17.5,2.2,26.3c0.8,0.1,1.6,0.2,2.3,0.4c1.5-4.1,2.8-8.4,4.5-12.4
		c2.2-5.2,4.6-10.2,7.3-15.2c2.4-4.5,6.3-5.4,11.1-4.1c7,2,12.7,5.3,15.3,12.8c6.8,19.8,14,39.4,21,59.1c0.4,1.2,1.2,2.8,0.8,3.8
		c-1,2.6-2.1,6.1-4.2,7.1c-2,0.9-6.5-0.1-7.7-1.9c-3.5-4.8-6.6-10.1-8.6-15.6c-4.3-11.9-7.7-24.1-11.6-36.1c-1-3.1-2.6-5.9-4.5-10
		c-5.5,7.8-7.5,15.7-9.8,23.5c-2.8,9.9-5.5,19.8-8.2,29.8c-1.6,5.8-6.5,6.9-11.3,8.7c-5.2-3.8-7.9-8.1-8.3-14.9
		c-1.7-23.9-4.2-47.7-6.4-71.5c-0.7-7-1.8-8.3-8.8-7.4C96.9,85.3,90.5,87.2,82.4,89z"/>
	<path d="M840.4,48.1c1.5,5.8,5.1,7.4,9,8.6c8.9,2.8,17.7,5.6,26.5,8.6c19.6,6.7,36.3,17.8,50.7,32.6c6.6,6.8,11.7,14.6,13.9,23.9
		c2.6,10.5,0.7,19.4-8.3,26.7c-10.2,8.2-22.2,10.4-34.4,11.6c-13.6,1.3-27.1,2.1-40.1-4.3c-26-12.9-31.5-35.3-24.9-59.3
		c0.5-1.9,2.6-3.4,3.9-5c5.8,1.6,5,5.9,4.4,9.2c-1.4,7.9,1,14.9,3.5,22.1c2.9,8.5,8.5,14.4,16.9,17.1c19.6,6.3,38.8,4.2,57.3-4.4
		c8.2-3.9,9.5-9,4.8-17.3c-7.4-13.1-18.8-22.5-32-29.1c-10.9-5.4-22.8-9.1-34.4-13c-10.3-3.5-21.2-5.4-28.8-14.5
		c-9.6-11.4-8.6-23.3,4.3-29.9c18.4-9.4,37.9-16.3,59.1-15.3c3.3,0.2,6.6,0.8,9.7,1.9c5.4,2,7.7,6.1,6.7,10.7
		c-1,4.5-5.2,7.8-10.3,7.8c-1.3,0-3.1,0.1-3.8-0.7c-6.9-7.1-14.6-2.5-21.7-1.1C861.2,37.3,850.2,41.1,840.4,48.1z"/>
	<path d="M1159.6,130.3c-10,8.3-19.2,16.4-28.8,23.9c-12.6,9.9-23.3,4.9-28.1-8.3c-4.8-13.1-4.8-26.6-1.8-40.2
		c1.9-8.4,4-16.8,5.9-25.3c1.6-7.2,3.5-9.3,8.4-9c4.9,0.3,10.5,6.4,10,11.9c-0.4,4.1-2.2,8.3-4,12.1c-6.3,13.5-7.4,27.3-4,42.9
		c9.4-1.8,15.9-7.2,22-13.1c4.7-4.6,8.8-10,13.4-14.8c8.3-8.7,16.1-7,19.2,4.8c2.4,9.1,7.3,15.3,15.8,19.2
		c9.4,4.3,13.3,1.9,12.2-8.5c-1.7-17.2-4-34.3-5.9-51.5c-0.9-8-5.2-13.3-11.6-17.7c-1.7-1.2-2.8-4.1-3-6.4c-0.1-1,2.7-2.6,4.4-3.3
		c1-0.4,2.5,0.5,3.7,1c8.9,3.6,15,10.1,17.9,19c2.6,7.8,5,15.9,6.1,24.1c2.1,15.7,5.3,31.2,5.2,47.3c-0.1,15.8-9.7,18.8-20.7,15.8
		c-13.8-3.8-27-9.6-34.9-23C1160.6,130.9,1159.9,130.6,1159.6,130.3z"/>
	<path d="M968.6,109.4c3.4-8.6,6.9-17.1,10-25.7c1.5-4.2,2.8-8.5,8-9c5.2-0.5,9.2,2,10.7,7c2.1,6.9,4.1,13.9,5.5,21
		c2.2,11.1,3.8,22.3,12,31c3.5,0,6.7,0,9.8,0c2.7,8.8,1.8,11.9-3.9,15.6c-5.7,3.6-10.9,3.1-16.2-2c-7.3-7.1-12.1-15.8-14.7-25.6
		c-1.1-4-1.9-8.1-3.2-14c-6.2,9.9-9.3,19.1-12,28.5c-0.5,1.6-0.5,3.3-0.9,4.9c-1.4,5.7-5.5,9.2-10.3,8.9c-5.4-0.3-7.4-4.4-8.2-8.7
		c-2.2-12.1-3.9-24.3-5.8-36.4c-3.6-23.3-7.2-46.6-10.9-69.8c-0.5-3-1.8-6-1.3-8.8c0.5-2.9,2.2-7.1,4.3-7.8c2.2-0.8,6.3,1.2,8.4,3.2
		c1.9,1.8,2.9,5.1,3.3,8c3.8,23.6,7.3,47.3,11,70.9c0.5,2.9,1.3,5.8,2,8.6C967,109.3,967.8,109.4,968.6,109.4z"/>
	<path d="M704.8,113.9c3.2-7.6,6.2-15.3,9.7-22.7c5.8-12.7,14.5-14.7,25.3-5.7c7.6,6.3,13,14.4,15.4,24c3.3,12.9,5.8,25.9,8.9,38.9
		c0.8,3.5,2.6,6.8,3.9,10.1c2.2,5.6,0,11.4-5,13.4c-4.7,1.9-11-1.1-12.4-7c-2.1-8.4-3-17-4.8-25.4c-2.1-9.7-4.6-19.3-7-29
		c-0.5-1.9-1.4-3.8-2.4-5.5c-3.3-5.7-7.3-5.9-10,0c-4,8.7-7.9,17.5-10.8,26.6c-2.5,7.9-3.6,16.2-5,24.3c-1.1,6.2-4.2,10.2-8.8,10.6
		c-4.9,0.4-9-2.4-10-9c-1.6-10.1-2-20.5-3-30.7c-0.6-5.9-0.9-12-2.2-17.7c-1.3-5.7-3.4-11.3-5.5-16.8c-1.2-3-1.9-5.6,0.9-8.1
		c3.1-2.8,6.3-3.4,10-1.2c7.3,4.2,8,11.9,9.7,18.9c0.9,3.7,0.7,7.7,1,11.6C703.3,113.6,704,113.8,704.8,113.9z"/>
	<path d="M216.2,139c2.6,13.4,7.4,18.6,18.6,18.7c10.2,0.1,20.5-1.4,30.7-2.5c4-0.4,8.1-2,10.6,2.5c1.7,3.1-0.6,8.5-5.4,10.6
		c-18.7,8.3-37.4,11.8-55.9-0.6c-10.4-7-13.9-17.4-15.1-29c-2-19,7.7-33,20.3-45.7c4.9-5,10.8-7.5,17.7-8.2
		c16.3-1.7,26.7,11.5,21,26.9c-5.1,13.8-13.9,23.3-29.5,24.7C225,136.9,220.9,138.1,216.2,139z M243.1,98.3
		c-12.2,3.2-17.6,11.8-22.5,21.6C235.4,121.4,243.7,113.6,243.1,98.3z"/>
	<path d="M1026.6,117.6c2.1-10.8,3.6-20.5,6.1-30.1c0.5-2.1,4.1-4.4,6.5-4.8c12.4-2,24.5-0.4,36,4.8c17.3,7.9,27.3,35.6,17.9,51.3
		c-7,11.7-18.6,17.4-31.9,17.3c-12.4-0.1-22.6-6.4-28.2-17.6C1029.6,132,1028.5,124.3,1026.6,117.6z M1060.2,139.5
		c5.7-2.2,11.8-3.8,17.1-6.9c5.6-3.3,7.7-10.9,5.5-16.7c-3.8-9.8-11.4-15.5-21.5-16.8c-5.6-0.7-11.3,1.3-14.7,6.5
		c-4.5,6.9-3.1,20.8,2,27.3C1051.5,136.6,1054.9,138.8,1060.2,139.5z"/>
</g>
</svg>
