<?xml version="1.0" encoding="utf-8"?>
<!-- Generator: Adobe Illustrator 20.1.0, SVG Export Plug-In . SVG Version: 6.00 Build 0)  -->
<svg version="1.1" id="Layer_1" xmlns="http://www.w3.org/2000/svg" xmlns:xlink="http://www.w3.org/1999/xlink" x="0px" y="0px"
	 viewBox="0 0 879.8 196" style="enable-background:new 0 0 879.8 196;" xml:space="preserve">
<g>
	<path d="M277.4,131.2c0.1,2.6,0.7,5.4,0,7.9c-2,7.7-9.6,10.5-15.2,4.8c-5.2-5.3-9.2-12-13-18.5c-3.9-6.8-6.9-14.2-10.7-22.3
		c-2,2.2-4,3.6-4.8,5.4c-4,8.7-8.1,17.4-11.3,26.5c-1.5,4.2-1.6,8.6-7.1,9.4c-4.4,0.6-9.8-2.4-11.6-7.7c-3.5-10-6.4-20.2-9.5-30.4
		c-0.5-1.5-0.7-3.1-1.2-5.9c-4,3.6-7.3,6.6-11,9.9c1.6,8.2,3.5,16.3,4.7,24.5c0.8,5.2,1.2,10.6,0.6,15.8c-0.3,2.3-3.1,5.2-5.4,6
		c-1.7,0.6-5.1-1.2-6.6-3c-1.9-2.1-3.2-5.1-3.8-7.9c-1.4-6.8-2.2-13.8-3.4-20.7c-0.5-2.9-1-5.7-1.5-8.4c-12.3-1-23.7-2-36.4-3
		c-0.4,1.2-1.6,3.8-2.4,6.5c-3.1,11.3-9.7,20.4-17.9,28.3c-4.9,4.7-10.6,8.2-17.5,9c-20.7,2.4-40.5,0.2-58.3-12
		c-13.6-9.3-21.8-22.3-24.5-38.5C5.9,85.6,10,65.4,22.1,47.1C28.5,37.5,37.5,33,49.1,33c7.6,0,15.3-0.6,22.9-1.4
		c19-2,34.6,4.9,47.8,17.9c9,8.9,12.4,20.2,12.4,32.7c0,11.2,2.1,14.2,13.2,15.5c5.8,0.7,11.7,0,18.5-0.1
		c-0.3-12.7-1.5-23.8-4.5-34.7c-0.9-3.1-1.8-6.8-0.8-9.6c0.9-2.7,4-5.8,6.7-6.5c3.5-0.9,7.5,0.9,8.5,5.1c1.6,6.7,2.9,13.6,4,20.4
		c0.6,3.8,0.6,7.7,0.8,11.6c0.7,0.3,1.4,0.6,2.1,0.9c1.6-2.1,3.9-4,4.6-6.4c1.9-6,2.9-12.2,4.7-18.2c1.4-5,2.5-10.4,5.3-14.6
		c3.4-5.1,7.3-4.4,11.3,0.5c4.1,4.9,3.7,10.7,2.7,16.2c-2.6,14-0.8,27.8,0.9,41.7c0.3,2,1.6,3.9,3.1,7.2c4.7-9.6,8.8-17.8,12.6-26.1
		c3.2-7,8.8-9.4,15.1-5.1c4.2,2.9,8.2,7,10.7,11.4c5.5,9.4,10.4,19.3,15,29.3c2.4,5.2,5.7,8.8,10.9,10.8L277.4,131.2z M36.3,53.9
		C27,67,22.3,80.7,23.3,95.8c1.4,20.4,10.9,35.4,31,42.1c5.6,1.9,11.6,2.9,17.5,3.9c22,3.5,34.9-9.4,41.5-26.5
		c4.5-11.6,5.4-24.1,4-36.4c-0.9-8.3-3.5-16.5-10.8-21.7c-16-11.3-33.9-11.8-51.5-6C48.8,53.2,43.4,55.4,36.3,53.9z"/>
	<path d="M785.8,124.8c5.1,2.7,9.2,4.8,13.3,7c6.7,3.7,13.7,7,20,11.2c11.5,7.6,23.6,13.5,36.9,17.2c3.6,1,7.9,3.2,9.6,6.2
		c3.8,6.8-2.1,14.9-10,13.3c-8.4-1.6-16.8-4.2-24.6-7.8c-8.4-3.8-16-9.4-24.1-13.9c-10.5-5.8-20.9-11.5-31.7-16.7
		c-6.2-3-8.3-0.8-7.3,6.2c0.8,5.6,1.5,11.2,1.8,16.8c0.3,4.5-1.8,7.6-6.5,8.7c-4.5,1.1-7.6-1.4-8.8-4.8c-2.1-6.2-3.5-12.7-4.3-19.2
		c-1.1-9.9-1.4-19.9-2.2-29.9c-0.2-3.2-0.7-6.4-1.2-10.6c-7,4.1-13.5,3.5-20,2.9c-2.6-0.3-5.3-0.5-7.9-0.4
		c-9.3,0.3-12.5,2.6-14.6,11.7c-2.4,10.7-4.4,21.5,0.8,32.3c1.2,2.5,0.5,6.6-0.6,9.5c-2,5.7-8.7,6.9-12.9,2.7
		c-1.8-1.8-3.4-4.3-4.1-6.7c-4.6-16.3-9.6-32.5-9.8-49.8c0-3.1-1.7-6.2-2.7-9.3c-1.9-5.2-1.1-9,2.2-10.5c4-1.8,7.8-0.1,10.6,4.9
		c1.4,2.5,2.6,5.2,4.5,8.9c7.8-13.9,19.3-13.9,31.7-11.4c8.8,1.8,11.1,0.3,13.4-8.5c0.6-2.2,0.5-4.7,1-6.9c1.4-5.7,4.4-8,9.7-8.4
		c5.3-0.4,8.4,2.7,9.4,7.1c2.4,10,4.2,20.1,6.2,30.2c0.3,1.3,0.3,2.6,0.4,3.9c2.6,2.8,5.3,2.5,8.1,0.7c8.7-5.6,17.5-10.9,26-16.8
		c2.1-1.5,3.7-4.5,4.4-7.1c3-10.4,16-20.6,26.9-20.1c2.4,0.1,5.5,2.4,6.9,4.5c2.3,3.4,2.5,7.7-0.5,11.1c-5.5,6.2-10.7,12.8-17,18.1
		c-7.9,6.6-16.8,12-25.2,17.9C791.3,120.7,789,122.4,785.8,124.8z"/>
	<path d="M464,158.5c7.3-3.6,10.5-9.9,13.5-16.2c4.8-9.9,9.1-19.9,13.7-29.9c1.2-2.7,2-5.9,4-8c2.6-2.7,6-5.8,9.4-6.2
		c4.6-0.5,7.6,3.4,9.1,7.8c1.8,5.4,3.5,10.8,5.2,16.1c4.9,15.3,14.4,26.9,28.5,34.4c3.9,2.1,8.5,3,13.9,4.9c1-5.6,2.1-9.7,2.4-13.9
		c2.4-25.7-6.7-48.3-19.5-69.8c-2.4-4-4.9-8-6.5-12.3c-2.1-5.8,0.8-10.9,6.1-11.2c2.2-0.1,6.2,1.3,6.6,2.8c3.1,12.3,13,20.6,18,31.9
		c10.3,23,15.1,46.7,11.8,71.8c-2,15.3-10.3,20.6-25.1,16.1c-15.3-4.6-28.4-13-38.2-25.9c-5-6.6-9.3-13.7-14.8-21.8
		c-1.8,4.1-3.4,7.9-5,11.5c-3,6.7-5.4,13.7-9.2,19.9c-3.1,4.9-7.3,9.5-12.1,12.9c-8.6,6.1-16.2,4.9-24.6-1.6
		c-8.1-6.3-12.3-14.4-13.3-24.6c-2-22.1,0.7-43.9,4.3-65.5c2-12.1,4.8-24,7.4-36c0.2-0.9,0.9-1.7,1.5-2.9c4.9-1.1,9.8-1.9,13.5,2.8
		c3.9,5,4.1,10.3,0.9,15.8c-5.6,9.7-7.6,20.5-8.7,31.5c-1.4,14.2-3,28.5-3.2,42.7C453.7,143.9,454.2,153.2,464,158.5z"/>
	<path d="M277.6,131.5c-1-6.1-2.5-12.2-3-18.4c-1.2-16.5,14.1-36.6,36-38.2c1.9-0.1,4,0.5,5.8,1.2c9,3.4,11.9,11.2,13.2,19.6
		c1.3,7.8-1.2,14.4-7.9,19.1c-6.8,4.7-13.8,8.1-22.3,4.5c-1.4-0.6-3.1-0.5-5.7-0.9c1.6,6.8,5.7,10.4,10.3,13.4
		c8.1,5.3,17.2,6.5,26.7,6.3c17.1-0.3,16.8-0.1,15.1-16.5c-0.8-7.9-0.4-15.9-0.1-23.8c0.3-9.4,5.6-15.8,14.3-18.4
		c7.5-2.3,15.5-3.2,23.4-4.3c4.6-0.6,9.3-0.6,13.9-0.5c3.1,0.1,6.2,0.8,9.3,1.2c-1.4,10.3-1.4,10.3-9.6,12
		c-8.1,1.6-16.3,2.9-24.4,4.9c-8.6,2.1-11.2,4.9-11.3,13.9c-0.1,9.9,1.1,19.9,1.7,29.8c0.2,3.3,0.4,6.7,0,10
		c-0.8,6.3-5.5,10.3-11.6,10c-10.9-0.6-21.8-1.7-32.7-2.1c-12.7-0.4-22.9-6.1-32.1-14.1c-3.2-2.8-6.3-5.9-9.4-9
		C277.4,131.2,277.6,131.5,277.6,131.5z M296.2,99.2c9.9,3.9,12.9,2.4,13.9-7.5C305.2,94.4,301.1,96.6,296.2,99.2z"/>
	<path d="M607.6,104.2c-2-1.4-3.6-2.4-5.1-3.6c-4.7-3.9-3.8-10.9,2.1-12.2c28.3-6.2,58.6,2.2,65.6,36.4c2,10.1,1.1,19.7-0.3,29.7
		c-2.7,18.5-26.4,33.5-47.2,24.3c-25.8-11.4-33.3-36.6-20.3-64.6C603.8,110.9,605.7,107.8,607.6,104.2z M633.6,104.5
		c-2.1,2.6-3.7,6-6.3,7.5c-11.4,6.3-14.6,16.7-14.7,28.5c-0.1,11.2,10.7,22.4,21.9,23.6c7.5,0.8,13-1.8,16.7-8.3
		c5.6-9.8,5.9-20.5,3.2-31C651.5,114.4,645.1,106.6,633.6,104.5z"/>
</g>
</svg>
