<?xml version="1.0" encoding="utf-8"?>
<!-- Generator: Adobe Illustrator 20.1.0, SVG Export Plug-In . SVG Version: 6.00 Build 0)  -->
<svg version="1.1" id="Layer_1" xmlns="http://www.w3.org/2000/svg" xmlns:xlink="http://www.w3.org/1999/xlink" x="0px" y="0px"
	 viewBox="0 0 549.6 157.4" style="enable-background:new 0 0 549.6 157.4;" xml:space="preserve">
<g>
	<path d="M34.2,40c3.3,1.2,6.6,2.6,10,3.7c37,11.2,64.6,34.8,85.8,66.4c3.2,4.8,5.3,10.8,6.2,16.6c2.1,12.7-4.8,21.5-17.8,22.7
		c-11.6,1-23.2,1.2-34.6-2.3c-16-4.9-31.6-10.3-45.5-19.9c-7.6-5.2-13.5-11.7-16.8-20.4c-2.5-6.7-1.6-13.2,2.2-19
		c1.2-1.8,4.6-3.4,6.5-2.9c1.6,0.4,3.7,4.1,3.4,6c-1.7,11.3,4.6,17.2,13.3,22.2c19.5,11.1,40,17.9,62.7,16.3
		c9.1-0.6,11.3-3.9,7.3-12.2c-1.8-3.8-4.9-7.1-7.4-10.5c-16-21.7-38-34.8-62.9-43.5c-4.7-1.6-9.5-3.1-14.2-4.8
		c-3.1-1.2-6.3-2.4-9-4.1C9.8,45.4,4.5,28.7,24.5,19.6c19.7-9,40.1-16.3,62.5-12c8,1.5,10.7,4,10.8,10.5c0,6.5-3.8,10.3-10.2,8.8
		C67.9,22,51.4,30.9,34.3,37.3C34.3,38.2,34.3,39.1,34.2,40z"/>
	<path d="M519.7,119.6c-3.9-3-6.1-5.6-8.9-6.6c-10-3.6-20-7-30.3-9.6c-9.7-2.5-19.8-3.2-29.4-5.9c-6.2-1.8-12.7-4.7-17.6-8.8
		c-13.6-11.3-12.8-29.4,2-39c8-5.1,17.2-9.3,26.4-11.3c12.7-2.8,25.8-2,38.4,2.5c4.9,1.8,8.3,5,8.5,10c0.1,3.3-1.1,7.5-3.4,9.6
		c-1.8,1.6-6.6,1.7-9.1,0.6c-17.7-8.4-33.6-3.1-49.1,5.9c-1.1,0.7-2.1,1.6-3,2.6c-0.4,0.4-0.5,1.2-1.2,3c3.2,1.6,6.4,3.9,10,4.9
		c7,1.9,14.3,3.2,21.5,4.5c20.2,3.7,39.7,8.9,54.8,24.1c17.1,17.3,13,31-10.2,38.7c-12.9,4.3-25.8,4.9-39.3,2.5
		c-11.4-2-17.5-10-24.4-17.4c-0.9-1-0.9-4.5,0.1-5.3c1.4-1.3,4.1-2,6-1.6c6.2,1.1,12.3,3.3,18.5,4.1
		C493,128.8,505.8,128.3,519.7,119.6z"/>
	<path d="M166.9,62.2c5.5-0.8,10.7-1.2,15.8-2.5c9.3-2.4,18.6-4.9,27.6-8.4c4.1-1.6,7.9-4.9,10.6-8.4c2.3-3.1,4.5-4.7,8.1-4.2
		c4,0.4,6.7,2.6,8.2,6.4c2.9,7.2,1.1,12.9-6,18.2c-8.4,6.3-18.2,9.5-28.1,12.4c-5.7,1.6-11.4,3-19.1,5.1c3.8,2.9,6.2,4.9,8.7,6.7
		c15.4,10.4,30.9,20.7,46.4,31.1c1.1,0.7,2.4,2,3.4,1.9c3.6-0.6,7.5-0.3,8.4,3.3c1.1,4.7,1.3,10,0.3,14.7c-1,4.7-5.8,6.1-10.5,4
		c-1.5-0.7-2.9-1.7-4.1-2.8c-17.2-14.9-36.4-26.7-56-38.1c-2.8-1.6-5.5-3.5-9.4-6c-0.2,3-0.7,5.2-0.4,7.2c1.2,8.9,2.7,17.8,3.9,26.7
		c1.1,8-0.5,12.6-4.6,13.9c-4,1.3-7.5-1.4-11.2-9.2c-0.8-1.8-1.4-3.7-1.7-5.7c-1.5-11.2-2.6-22.5-4.3-33.7
		c-0.8-5.8-0.7-11.8-4.7-17.1c-1.5-2-1.8-6.2-0.8-8.6c4.5-11-0.4-20.9-2.8-31.1c-1.1-4.8-3.1-9.5-5-14c-1.7-3.9-1.6-7.5,2.3-9.5
		c3.5-1.8,7.5-1.1,9.9,2.2c2.7,3.7,5.5,7.7,6.7,12C161.7,39,163.9,49.7,166.9,62.2z"/>
	<path d="M368.9,12.9c1.3-1.9,2.6-5.3,4.7-6.1c2.2-0.8,6.3,0.1,8,1.7c2.9,2.9,5.7,6.7,6.8,10.7c4.8,17.6,8.9,35.4,13.6,52.9
		c4.4,16.3,9.2,32.5,14.2,48.7c0.9,3,3.3,5.6,5.4,8c3.1,3.5,4.8,7.4,2.8,11.8c-3,6.9-11.4,7.7-16,1.2c-3.5-5.1-6.9-10.8-8.6-16.7
		c-7.7-27.1-14.8-54.4-22.2-81.6c-1.9-7-4.3-13.9-6.4-20.9C370.5,19.7,369.9,16.8,368.9,12.9z"/>
	<path d="M362,142.8c-1.6,2.1-3.4,6.2-6.4,7.8c-3.8,2-7.3-1.6-8.7-4.8c-3.6-8.5-7.6-17.2-9.2-26.1c-4.6-26.9-8-53.9-12.1-80.9
		c-1-6.5-2.9-13-4.9-19.3c-1.4-4.6-0.5-7.8,3.5-10.2c4.1-2.4,7.9-1.7,10.5,2.2c2.1,3.2,4.6,6.7,5.2,10.3c3.4,20.7,6.2,41.4,9.3,62.1
		c2.4,16,3.3,32.4,10,47.6C360.6,134.4,360.9,137.8,362,142.8z"/>
	<path d="M300.9,121.6c-0.5,1.9-0.8,4.6-2,6.9c-2.1,4.1-7,4.9-9.8,1.2c-2.8-3.6-5.2-7.8-6.6-12C278,104.9,274.1,91.9,270,79
		c-1-3.1-2.6-6.3-2.8-9.5c-0.1-2.6,0.7-6.7,2.5-7.6c2.5-1.3,6.4-0.9,9.2,0.1c2.1,0.8,4,3.7,4.8,6c5.6,15.9,10.9,31.9,16.2,47.9
		C300.3,117.5,300.4,119.2,300.9,121.6z"/>
	<path d="M270.9,23.1c6.1,0.1,8.8,3.4,8.8,10.5c0,5.2-4.2,10.5-8.4,10.6c-5.5,0.1-9.9-6.2-9.9-13.9C261.5,25,264.3,22.9,270.9,23.1z
		"/>
</g>
</svg>
