<?xml version="1.0" encoding="utf-8"?>
<!-- Generator: Adobe Illustrator 20.1.0, SVG Export Plug-In . SVG Version: 6.00 Build 0)  -->
<svg version="1.1" id="Layer_1" xmlns="http://www.w3.org/2000/svg" xmlns:xlink="http://www.w3.org/1999/xlink" x="0px" y="0px"
	 viewBox="0 0 281.1 196" style="enable-background:new 0 0 281.1 196;" xml:space="preserve">
<g>
	<path d="M231.3,81.9c-5.6,6.9-9.5,12.2-14,17.1c-3.8,4.2-7.8,8.3-12.3,11.6c-10.1,7.4-20.4,6.9-30.2-0.9
		c-5.1-4.1-10.2-8.4-14.8-12.2c0,0.3-0.4,2.4-0.3,4.5c0.8,14.3,1.8,28.6,2.7,42.8c0,0.7,0.2,1.3,0.3,2c0.3,7-2.1,10.8-7.1,11.2
		c-5.2,0.5-10.8-4.6-11-10.6c-0.6-18.9-0.5-37.9-1.4-56.8c-0.4-9.2-2.5-18.3-3.6-27.5c-0.5-3.8-1.4-8-0.4-11.5
		c1.9-6.4,6.8-7.9,12.5-4.4c2.4,1.5,4.5,3.9,6,6.4c3.9,6.6,6.9,13.7,11,20.2c4,6.4,8.3,12.9,13.5,18.4c5.3,5.8,9.7,5.8,15.8,1
		c13.4-10.7,23.8-24.1,32-39.1c0.9-1.7,0.9-3.8,1.3-5.8c0.5-2.3,0.7-4.7,1.6-6.8c1.8-4.3,7.1-7.6,11-7.3c4.4,0.4,7.9,3.9,8.8,9.5
		c0.4,2.5,0.2,5.3-0.5,7.8c-5.3,18.1-2.5,36.3-1.3,54.5c0.6,8.9,2.6,17.8,3.6,26.7c0.7,6.1,2.4,11.1,6.9,15.9
		c5.8,6.2,3.9,14.6,1.7,21.8c-1.9,6.3-11.8,7.1-15.5,1.3c-2.9-4.7-4.9-10.2-6.2-15.6c-5.2-22.4-7.8-45.2-9.1-68.2
		C232.2,86.7,231.8,85.5,231.3,81.9z"/>
	<path d="M84.1,95.3c6.1,4.7,12.4,8.6,17.6,13.7c6.1,6,12.1,12.4,16.7,19.6c9.5,14.9,3.6,27.6-10.7,33.5c-23.7,9.8-48,9.5-70.6-5.2
		c-7.9-5.2-11.5-12.6-11-22c0.1-1.3,0.7-2.5,1.2-3.7c0.2-0.4,1.1-0.5,2.6-1.2c12.2,18.9,31.9,19.7,51.5,19.5
		c9.1-0.1,18.7-0.7,26.1-9.3c-1.4-2.5-2.4-5.5-4.4-7.5c-6.4-6.3-12.6-12.8-19.8-18c-10.7-7.7-22.4-10-34.5-2.7
		c-3.5,2.1-7.3,3.6-11.3,1.3c-6.3-3.6-6.6-12.5,0-16.5c4.2-2.5,9.1-4,13.9-5.2c16.3-4.2,30.3-12.1,40.9-25.2
		c6.9-8.5,3.5-20.3-6.9-23.2c-6.6-1.8-13.8-2.5-20.7-2.2C53.5,41.5,43.4,45.8,34,52c-4.4,3-7.6,2.3-10.2-1.5
		c-2.6-3.7-1.9-9.1,2.1-11.3c15.3-8.4,31-15.5,49.2-13.5c4.3,0.5,8.5,1.5,12.8,2.4c20.7,4.4,31.3,32.3,15,50
		C97.2,84.1,90.7,89.3,84.1,95.3z"/>
</g>
</svg>
