<?xml version="1.0" encoding="utf-8"?>
<!-- Generator: Adobe Illustrator 20.1.0, SVG Export Plug-In . SVG Version: 6.00 Build 0)  -->
<svg version="1.1" id="Layer_1" xmlns="http://www.w3.org/2000/svg" xmlns:xlink="http://www.w3.org/1999/xlink" x="0px" y="0px"
	 viewBox="0 0 1974.3 208" style="enable-background:new 0 0 1974.3 208;" xml:space="preserve">
<g>
	<path d="M1168.1,153.9c4.7-7.1,9.8-14.1,14.1-21.4c3.6-6,6.7-12.3,9.4-18.7c1.9-4.6,4.5-7.3,9.6-6.8c4.2,0.4,9.4,5.8,9.7,10.1
		c0.2,3-0.1,6-0.5,8.9c-1.2,8.4,1.4,15.2,8.3,20c5.2,3.6,10.3,7.4,16,10.2c9.7,4.7,15.2,1.9,18-8.2c0.3-1,0.4-2,0.5-2.9
		c2.9-24.5,4.7-49-3.9-72.9c-0.6-1.8-0.4-4.9,0.8-6.1c2.4-2.4,5.1-0.6,6.8,1.5c5.5,6.7,10.9,13.6,12.1,22.6
		c2.6,18.5,4.2,37.1,1.7,55.7c-0.9,6.8-2.8,13.7-5.3,20.1c-4.1,10.6-16.2,15.2-26.4,10.5c-4.2-2-8.3-4.4-11.9-7.2
		c-5.2-4-10.3-7.9-16.5-10.8c-5-2.3-8.6-7.7-13.3-12.2c-1.1,1.7-2.8,3.4-3.5,5.4c-3.2,9.2-10,15.7-16.5,22.3
		c-6.9,7-16.6,5.6-22.1-2.8c-2.5-3.9-4.5-8.1-7.2-13c-2.9,4.1-5.7,8-8.5,11.9c-17.3,23.6-47.5,24.2-64.6-0.2
		c-7.7-11-12.3-24.2-18.1-36.5c-1.6-3.3-1.4-6.7,2.6-8.3c3.8-1.6,5.5-4.4,6.6-8.1c4.2-13.4,13.7-22.6,25-30.1
		c8.8-5.9,17.7-4.7,26.3,0.4c6.3,3.7,9.7,14.5,7.9,23.2c-3.7,18.5-16,30.6-34.4,34.1c-2.6,0.5-5.2,1-7.7,1.6
		c0.9,12.8,11.3,22.2,23.6,20.6c5.4-0.7,11-3,15.6-5.9c6.8-4.2,12.6-9.7,19.2-14.3c2.8-2,3.6-4.2,3.7-7.5
		c0.3-15.3,0.9-30.5,1.5-45.8c0.2-4.5,2.2-8.2,7-9.9c4.9-1.8,7.9,0.3,11.2,3.9c5.4,6.1,5.7,12.1,2.6,19.3
		c-6.4,15.2-5.5,30.8-2.5,46.4C1165.8,153.3,1167,153.6,1168.1,153.9z M1087.3,121c9.4-1.6,17-5.6,20.3-16.9
		C1095.4,104.4,1091.6,113,1087.3,121z"/>
	<path d="M1942.8,168c-21.7,14.7-36.6,12.3-59.5-8.2c-7.2,4.3-13.9,9.1-21.2,12.7c-18.2,9-32.2-2-37.3-15.1
		c-4.9-12.5-6.4-25.2-1.1-37.9c4.1-9.8,9.2-18.8,16.1-27.3c16.4-20.3,39.6-17,56.6-7.2c7.1,4.1,11.5,12.7,8.7,20.3
		c-2,5.5-2.3,10.4-1.5,16c0.7,4.8-0.4,9.6-3.6,14.1c-4.2,5.8-3.4,8.8,1.8,13.9c7.6,7.5,17.1,9,26.4,4c2.3-1.2,4.7-2.5,7.9-4.2
		c-1.9-9.3-3.8-18.6-5.6-27.9c-5.2-26.5-8.1-53.2-6.9-80.3c0.3-5.9,1.6-11.8,3-17.6c1.5-5.9,5.7-6.9,10.5-3c4.8,3.9,6.9,9,5.8,15.1
		c-5.3,28-1,55.7,4,83.1c2.7,14.7,7.7,28.9,11.6,43.3c0.7,2.5,1.5,5.4,0.9,7.7c-0.7,2.6-2.6,5.7-4.8,6.7c-1.6,0.8-4.9-1.1-6.9-2.5
		C1945.7,172.4,1944.5,170.1,1942.8,168z M1872.2,99.2c-6.8-0.7-12.6,1.9-17.4,7c-7.8,8.4-13.4,18-16.3,29.1c-0.6,2.5-1,5.2-0.8,7.8
		c0.7,8.6,6.3,12.4,14.4,9.8c7.7-2.5,14.7-6.6,19.2-13.4c4.7-7.1,9.1-14.6,12.6-22.3C1889.2,105.6,1885.2,99.8,1872.2,99.2z"/>
	<path d="M1366.9,99.9c1.4,8.2,2.5,15,3.6,21.8c1.9,11.5,4.3,22.9,5.7,34.4c0.7,5.8,0.1,11.9-0.8,17.7c-0.3,2-3.2,4.3-5.3,5
		c-3.1,1-5.7-0.9-7-4.1c-1.2-3.1-3-6-3.5-9.2c-3.9-23.3-7.6-46.6-11.1-69.9c-1.2-7.9-1.1-16-2.3-23.8c-0.8-5.1-2.3-10.5-4.9-14.9
		c-3.7-6.2-4.5-12.3-3.4-18.9c3.5-4.3,8.4-4.3,11.9-2c4.2,2.7,8.3,6.7,10.6,11.1c3.9,7.2,6.3,15.3,9.7,22.9
		c5.1,11.6,13,20.9,23.7,27.6c8.7,5.5,12.2,4.7,18.6-3.6c10.5-13.6,17.8-28.8,21.5-45.6c1.9-8.6,2.5-9.9,8.3-10.1
		c4.6-0.2,10.6,5.3,11.5,10.5c4.6,27.9,9,55.7,13.7,83.6c1.3,7.8,3.5,15.5,5.3,23.3c1.4,6.3,3.7,11.9,9.4,15.8
		c3.5,2.4,4.8,6.4,3.3,10.7c-3.1,8.7-11.5,10.7-16.8,3.1c-4.5-6.4-8-13.8-10.7-21.3c-7.8-21-10.6-43.2-14.5-65.1
		c-0.7-3.9-1.4-7.7-2.4-13.5c-2.2,3.3-3.3,5.1-4.5,6.9c-5.4,8-10.1,16.4-16.3,23.7c-7.4,8.8-17.4,10.2-26.9,4
		C1384.6,114.5,1376.8,107.7,1366.9,99.9z"/>
	<path d="M823.4,135.1c4.4,13.7,8.6,27,13,40.2c0.7,2.1,2.5,3.9,3.8,5.7c1.4,1.9,3.1,3.6,4.2,5.6c2.6,4.7,2,10.9-1.3,12.8
		c-4.8,2.7-8.4-0.1-11.2-3.5c-3.2-3.8-6.7-7.7-8.4-12.2c-5.8-15.2-11.2-30.5-16.2-46c-2.8-8.6-2.3-8.9-11.4-9.2
		c-9-0.2-18-0.2-27,0.1c-8.3,0.3-9.4,1-11.6,9.4c-3.7,13.8-6.8,27.7-10.2,41.6c-0.5,1.9-0.7,4.1-1.8,5.7c-1.4,2.1-3.3,4.9-5.3,5.1
		c-1.9,0.2-4.6-2-6.1-3.9c-3.6-4.6-5.5-9.9-4.3-15.9c1.8-9.1,3.3-18.3,5.9-27.2c2.1-7.2,3.4-13.9,0.1-21.2
		c-2.9-6.3-2.1-8.4,4.2-10.8c6-2.3,7.6-6.9,9.2-12c6.5-20.9,13.1-41.9,19.5-62.9c1.4-4.6,2.5-9.4,3.6-14.2c1.2-5.3,4.4-6.8,9.6-4.5
		c4.8,2.1,7.6,5.3,9.2,10.7c7.4,24.8,15.3,49.5,23.3,74.2c0.9,2.9,3.7,5.2,5.8,7.6c0.8,1,2.3,1.4,3.3,2.2
		C832.5,119.5,832.8,126.3,823.4,135.1z M798.2,106.4c-4.1-16.8-7.9-32.4-15.7-48.7c-6.5,16.8-11.4,32.3-15.1,48.7
		C778.1,106.4,787.6,106.4,798.2,106.4z"/>
	<path d="M953.8,89.3c2.8,20.7,5.6,41.5,8.3,62.2c1.1,8.6,2.3,17.2,2.8,25.8c0.2,2.7-0.9,5.9-2.4,8.3c-2.2,3.4-6.8,3.9-9.5,1.1
		c-3.6-3.8-6.7-7.9-7.6-13.6c-3.9-24.3-8.3-48.5-12.4-72.7c-1.7-9.8-3.1-19.7-4.6-29.6c-0.3-2-0.5-4-0.4-6c0.3-5.7,3.2-10.3,8-13.1
		c4.8-2.8,9.6-0.1,12.7,3.1c6.7,6.8,13.6,13.8,18.7,21.9c9.2,14.6,17.2,30,25.5,45.2c7.7,14.2,17.1,26.9,29.4,37.4
		c2.7,2.3,5.7,4.4,9.4,7.2c2-6.8,2.3-12.6,1.8-18.4c-1.5-19.3-4.8-38.3-11.1-56.6c-2.3-6.7-7.2-12.5-10.6-19
		c-2.1-4-4.3-8.2-5.3-12.6c-1.1-4.9,3.3-8.1,7.3-5.2c4.8,3.4,9.6,7.5,12.6,12.4c4.3,7,7.4,14.9,10,22.7
		c7.8,23.1,13.4,46.7,13.5,71.3c0,7-0.3,14-1.2,20.9c-1.2,9-5.9,11.1-14,6.9c-13.6-7.1-24.4-17.6-33.5-29.4
		c-9.2-12.1-16.9-25.4-25-38.3C969.3,110.3,964.5,98.1,953.8,89.3z"/>
	<path d="M130.2,26.3c6.3,5.1,9.8,11.2,11.2,18.1c7,34.7,7.9,69.5-2.7,103.6c-5.5,17.8-16.9,31.4-33.6,40.4c-7,3.8-14.3,5.9-22,5.1
		c-15.9-1.7-30.2-6.9-41.8-18.9c-13.6-14.2-22.1-30.5-24.3-50.1c-2.7-24.2-4.3-48.4,1.9-72.4c0.9-3.3,2.7-6.4,4.1-9.7
		c8.2,4.6,9.8,10.5,8.5,18.3c-4,24.6-2.8,49.2,1.9,73.5c4.7,24.8,21.3,38.9,44.7,41.5c10.1,1.1,18.8-2,26.5-9
		c9.4-8.6,15.3-19,18.9-31.1c9.7-32.7,9.8-65.6,3.1-98.8C125.9,32.8,125.3,29.1,130.2,26.3z"/>
	<path d="M323.5,164.3c-8.9,6.2-16.5,12-24.7,16.9c-3.9,2.3-8.7,3.2-13.2,4.1c-12.3,2.4-23.9-3.1-30.6-13.7
		c-12.3-19.5-7.7-36.1,6.2-51.8c8.9-10.1,20.2-17.5,32.8-22c6.3-2.3,13.5-2.3,21.5-3.6c3-7.3,2.1-16.3,2.9-25.1
		c0.5-5.6-0.1-11.3-0.1-16.9c0-1.7-0.4-3.6,0.2-4.9c1.2-2.4,2.7-5.4,4.9-6.6c3.4-1.9,6.9,0.2,8.3,3.3c1.7,3.8,3.3,8.1,3.2,12.2
		c-0.4,17.6-1.4,35.2-2.1,52.8c-0.2,5.5-1.5,11,1.5,16.5c1.4,2.5,0.5,6.6-0.1,9.8c-1.4,7.7-1.4,15.1,2.8,22.2
		c0.8,1.4,1.8,3.5,1.3,4.7c-1.3,3.2-2.7,7-5.2,8.9c-2.9,2.2-5.3-0.9-7.1-3.4C325.3,166.2,324.1,165,323.5,164.3z M307.8,114.2
		c-8.1-0.4-13.7,4.5-19.6,7.8c-10.2,5.6-17.7,14.2-21.7,25.2c-4.2,11.5,1.5,19.2,13.7,18.8c2.9-0.1,6.2-0.6,8.6-2.2
		c7-4.4,13.9-9.1,20.2-14.4c6.7-5.7,8.9-12.8,4.4-21.3C311,123.8,309.7,119,307.8,114.2z"/>
	<path d="M537,150.3c5.9,13.1,18.6,21,31.2,19.2c9.8-1.4,19.5-3.6,29.2-6.1c8.5-2.1,8.8-2.3,15.4,5.4c-0.6,1.3-0.8,3.2-1.9,4.1
		c-25.5,22.6-61.4,24.4-83.6-3.5c-14.3-18-13.3-43.8,1.2-61.6c10.6-13,23.7-19.3,40.2-17c5.7,0.8,11.7,3.2,16.3,6.6
		c9.2,6.8,10.1,16.7,3.6,26.5C577.7,140.1,558.7,150,537,150.3z M572.9,112.1c-17-3.1-26,1.5-32.9,15.7
		C553.8,129.3,562.8,121.6,572.9,112.1z"/>
	<path d="M1648.7,88.1c-9.1,0.7-16.9,1.2-26.3,1.9c2,3.1,2.8,4.8,4,6c19.7,19.1,36,40.9,50.4,64.2c3.9,6.4,5.5,13.5,4.6,21.1
		c-0.9,7.4-4.4,11-11.5,13.2c-10.4,3.1-20.7,1.3-30.5-1.5c-9.2-2.6-18.2-6.6-26.4-11.4c-10.5-6.1-13-16.7-13.3-27.8
		c4.4-2.8,7.2-0.9,9.5,1.5c11.6,11.8,26.9,15.2,42,19c1,0.2,2,0.5,3,0.3c2.7-0.7,6.1-0.9,7.8-2.7c1-1-0.1-5.1-1.5-7
		c-7.2-10.3-14.5-20.7-22.4-30.5c-9.3-11.8-20.3-22-32.6-30.6c-6.8-4.7-9.8-11.4-10.3-19.5c-0.3-4.1,0.7-7.2,4.8-8.7
		c11.6-4.4,23.5-7.4,36-6.9c2.3,0.1,4.6,0.8,6.8,1.6c7.3,2.9,9,6.9,6.6,14.5C1649.1,86,1648.9,87.3,1648.7,88.1z"/>
	<path d="M179.4,108.1c1.4-2,3-4,4.2-6.2c4.5-8.3,11.4-13.9,19.6-17.9c10.8-5.3,22-1.9,26.9,9c3.7,8.1,6.6,16.7,8.4,25.4
		c2.9,14,4.6,28.2,7,42.3c1.2,6.8,3,13.6,4.5,20.4c0.5,2.3,1.1,4.5,1.5,6.8c0.6,4-0.7,7.6-4.5,9c-3.8,1.4-6-1.7-7.9-4.5
		c-8.2-11.7-9.1-25.5-11.4-38.9c-2.7-15.4-5.1-30.8-7.7-46.2c-0.3-1.6-0.9-3.1-1.5-4.8c-7-2.1-12.4,0.7-15.7,6
		c-4.5,7.2-8.4,15-11.6,22.9c-6.1,14.5-9.2,29.8-9.3,45.6c0,4.6-2.4,7.7-6.5,9.1c-4.4,1.5-6.9-1.6-8.5-5c-1.6-3.5-4-7.4-3.6-10.9
		c2.2-24-0.1-47.9-1.9-71.7c0-0.3-0.1-0.7-0.1-1c-0.8-8.4,0.5-11.5,4.9-12.1c4.5-0.6,10.9,6,11.3,11.9c0.2,3.5,0,6.9,0,10.4
		C178.1,107.8,178.7,107.9,179.4,108.1z"/>
	<path d="M504.7,198c-6.7-6.3-9.4-14-11.2-22.1c-3.8-17.2-7.5-34.4-11.8-51.5c-1.2-4.6-3.8-9.2-6.8-13c-3.4-4.4-7.3-4.1-10.8,0.3
		c-1.8,2.3-3.4,5-4.2,7.8c-4.1,14-8,28.1-11.7,42.2c-0.8,3.1,0,6.6-0.2,9.9c-0.2,5.4-2.9,9.4-6.8,9.7c-5.1,0.4-8.2-2.3-9.2-7.2
		c-1.2-5.8-2.6-11.6-3.2-17.5c-1.6-16.8-2.9-33.7-4-50.6c-0.3-4.9,0-10,1-14.9c0.4-2,3-4.4,5.1-5.1c3-1.1,6.2,0.2,7.2,3.6
		c1.3,4.4,2.4,8.9,2.6,13.5c0.3,4.9-0.6,9.8-0.9,14.7c0.7,0.2,1.4,0.4,2.1,0.6c1.8-4.6,4-9.2,5.3-13.9c2.6-9.2,7.6-15.5,17.5-16.7
		c10.5-1.3,17.7,3.8,23,12.5c8.1,13.3,11.2,28.3,14.6,43.2c1.9,8.1,3.3,16.3,5.2,24.4c0.7,3.2,1.7,6.5,3.3,9.3
		C516.2,186.6,515.1,191.3,504.7,198z"/>
	<path d="M1775.1,159.1c9.3-2.4,18.5-4.7,27.8-7.2c1.6-0.4,3.1-1.3,4.6-1.9c4.1-1.5,8.4-3.4,11.7,1.3c2.1,3,0.3,8.2-3.7,12.5
		c-9.8,10.6-22.9,13.1-36.1,14.9c-17.7,2.5-34.2-5.7-42.1-20.4c-10-18.5-7.7-38.7,6.2-54.7c9.6-11.1,21-19.5,35.3-23.3
		c5-1.3,10.6-2,15.8-1.5c11.5,1.1,15.6,11.7,14.1,19.2c-1.6,8-8,10.6-13.6,4.7c-3.6-3.7-6.9-3.5-10.7-2.5
		c-16.2,4.4-27.5,14.8-33.9,30c-5.7,13.5,0.8,24.5,15.4,27.2c2.9,0.5,5.9,0.4,8.9,0.6C1774.9,158.4,1775,158.8,1775.1,159.1z"/>
	<path d="M355.8,98c15.9-11.1,32-9.7,45.7,2.5c14.5,12.9,19.3,28.9,16.8,47.5c-2.2,15.9-12.8,25-26.5,31.1c-4.5,2-9.5,3-14.3,4.1
		c-12.1,2.7-22.4-2.5-28.9-14.1c-5.6-10.1-7.1-20.9-4.2-31.8c2.3-8.6,5.3-17.2,9.3-25.1C356.2,107.4,358,103,355.8,98z M381.2,107.8
		c-3.1,4.2-5.5,7.3-7.8,10.5c-7.2,10.2-13,21-13.2,33.8c-0.2,8.9,4.1,13.1,12.9,12.2c14.5-1.5,25.3-9.3,32.8-21.7
		c3.5-5.8,3.9-12.3,1.3-18.2C402.4,113.2,393.1,108.3,381.2,107.8z"/>
	<path d="M1548.8,84.5c16-5.7,30.5,3.4,28.4,17.2c-3.6,23.6-10.7,45.9-32.3,60.2c-15.7,10.3-33.5,10-44.9-8.2
		c-13.3-21.3-19.2-44.4-13.7-69.5c1-4.3,2-8.5,7.8-8.7c4.4-0.2,7.4,2.5,8.5,5.8c1.3,3.8,1.7,8.5,0.8,12.4c-3.5,15-0.8,29.3,5,42.8
		c5.2,11.9,14.9,14.6,25.1,7.8c11.9-8,18.2-20,23.5-32.7c0.9-2.1,1.5-4.4,2.1-6.7c1.2-4.4,1.6-8.2-3-11.5
		C1553.4,91.5,1551.7,88.1,1548.8,84.5z"/>
	<path d="M1707.6,78.9c5.5,4.9,7.7,10.7,8.2,17.8c1.5,18.2,3.5,36.4,5.6,54.6c0.7,6.2,2.4,12.4,3.5,18.6c0.5,2.9,1.1,6,0.8,8.9
		c-0.4,4.3-2.8,7.6-7.5,7.9c-4.3,0.3-6.4-2.1-7.7-6.2c-5.9-18.9-8.3-38.3-9.9-57.9c-0.6-7.6-0.9-15.3-2.4-22.8
		c-1.3-6.5-1-12.4,2-18.9c-8.7-4.7-9.9-12.3-7.9-21.2c0.6-2.5,0.5-5.3,0.2-7.9c-0.6-4.8,1.5-7.7,5.8-9.1c4.8-1.6,9.3,0.2,11.7,4.8
		c4,7.6,2.3,15.5,0.8,23.3C1710.3,73.2,1708.9,75.6,1707.6,78.9z"/>
	<path d="M654.1,156c-5.1-3.6-7.3-8-8.4-12.8c-1.6-7.7,2.7-12.3,10.4-11.3c2,0.3,3.9,0.6,5.8,1.3c8.2,2.9,9.8,11.7,3,16.9
		C661.7,152.6,657.6,154.2,654.1,156z"/>
	<path d="M662.7,68c0.3,6.4-3.3,11.8-7.6,13.3c-0.3,0.1-0.6,0.2-1,0.3c-4.3,0.5-6.8-2-8.4-5.5c-2.9-6.5-1.9-15.6,2.1-17.4
		c3.9-1.8,7.9-1.2,10.7,2.3C660.5,63.4,661.8,66.5,662.7,68z"/>
</g>
</svg>
